<svg width="72" height="72" viewBox="0 0 72 72" fill="none" xmlns="http://www.w3.org/2000/svg">
<g filter="url(#filter0_d_0_528)">
<circle cx="34.0576" cy="34.1372" r="22.1" fill="#04AEF1" stroke="white" stroke-width="2.2"/>
<path d="M25.8996 45.4473V24.0394C25.8996 23.3826 25.3672 22.8501 24.7103 22.8501C24.0535 22.8501 23.521 23.3826 23.521 24.0394V45.4473C23.521 46.1042 24.0535 46.6366 24.7103 46.6366C25.3672 46.6366 25.8996 46.1042 25.8996 45.4473Z" fill="white"/>
<path d="M25.8998 44.2583H23.5211C22.8643 44.2583 22.3318 44.7908 22.3318 45.4476C22.3318 46.1045 22.8643 46.637 23.5211 46.637H25.8998C26.5566 46.637 27.0891 46.1045 27.0891 45.4476C27.0891 44.7908 26.5566 44.2583 25.8998 44.2583Z" fill="white"/>
<path d="M45.7832 38.7053C45.7832 38.8474 45.7185 38.9877 45.61 39.0795C39.8434 43.9576 34.0668 34.5063 28.2994 38.2425C27.9365 38.4776 27.4082 38.2415 27.4082 37.8091V24.657C27.4082 24.5149 27.4729 24.3746 27.5814 24.2829C33.348 19.4047 39.1246 28.856 44.892 25.1198C45.2549 24.8847 45.7832 25.1208 45.7832 25.5532V38.7053Z" fill="white"/>
</g>
<defs>
<filter id="filter0_d_0_528" x="0.85762" y="0.937195" width="70.4" height="70.4" filterUnits="userSpaceOnUse" color-interpolation-filters="sRGB">
<feFlood flood-opacity="0" result="BackgroundImageFix"/>
<feColorMatrix in="SourceAlpha" type="matrix" values="0 0 0 0 0 0 0 0 0 0 0 0 0 0 0 0 0 0 127 0" result="hardAlpha"/>
<feOffset dx="2" dy="2"/>
<feGaussianBlur stdDeviation="6"/>
<feComposite in2="hardAlpha" operator="out"/>
<feColorMatrix type="matrix" values="0 0 0 0 0 0 0 0 0 0 0 0 0 0 0 0 0 0 0.1 0"/>
<feBlend mode="normal" in2="BackgroundImageFix" result="effect1_dropShadow_0_528"/>
<feBlend mode="normal" in="SourceGraphic" in2="effect1_dropShadow_0_528" result="shape"/>
</filter>
</defs>
</svg>
