<svg width="72" height="72" viewBox="0 0 72 72" fill="none" xmlns="http://www.w3.org/2000/svg">
<g filter="url(#filter0_d_842_9888)">
<circle cx="33.8369" cy="34.1372" r="22.1" fill="#FD7FCD" stroke="white" stroke-width="2.2"/>
<path d="M35.6871 42.8135H35.4722L34.1445 42.7983C34.407 43.5627 34.8664 44.3214 35.5003 44.9993C35.7419 44.3531 35.806 43.5995 35.6871 42.8135Z" fill="white"/>
<path d="M32.7122 43.06C32.6834 42.967 32.6581 42.874 32.6336 42.7809L29.3531 42.7441C28.7322 42.7441 28.1185 42.6908 27.5186 42.5884C27.7183 43.2136 28.0284 43.8403 28.4503 44.4309C30.0858 46.7176 32.7757 47.5953 34.4588 46.3917C34.5345 46.3376 34.6052 46.2792 34.6744 46.2193C33.747 45.3013 33.0648 44.2102 32.7122 43.0607V43.06Z" fill="white"/>
<path d="M37.4453 38.0884C38.6748 38.0884 40.0444 38.5408 41.2588 39.4429C41.5286 39.6434 41.7784 39.8586 42.0088 40.0835C42.0512 40.1248 42.0928 40.1665 42.1338 40.2085C42.1531 40.2283 42.1724 40.2481 42.1914 40.2681C42.2344 40.3131 42.277 40.3581 42.3184 40.4038C42.3438 40.4319 42.3687 40.4604 42.3936 40.4888C42.4289 40.5291 42.463 40.5701 42.4971 40.6108C42.5223 40.6411 42.5477 40.6711 42.5723 40.7017C42.6028 40.7395 42.6326 40.7777 42.6621 40.8159C42.6922 40.8549 42.722 40.8938 42.751 40.9331C42.7665 40.9542 42.7817 40.9754 42.7969 40.9966C42.8219 41.0313 42.8479 41.0651 42.8721 41.1001H42.8691C43.99 42.7238 44.2026 44.6124 43.2402 45.9077C41.9205 47.6838 38.8941 47.6697 36.4805 45.8765C34.7355 44.58 33.7887 42.7088 33.8965 41.1001C33.8978 41.0805 33.8998 41.061 33.9014 41.0415C33.906 40.9855 33.9117 40.9298 33.9189 40.8745C33.9241 40.8349 33.931 40.7956 33.9375 40.7563C33.9439 40.7178 33.9503 40.6793 33.958 40.6411C33.9647 40.6078 33.9718 40.5745 33.9795 40.5415C33.9941 40.4793 34.0111 40.4179 34.0293 40.3569C34.0363 40.3334 34.0432 40.3099 34.0508 40.2866C34.07 40.2275 34.0897 40.1686 34.1123 40.1108C34.125 40.0782 34.1395 40.0463 34.1533 40.0142C34.1702 39.975 34.1884 39.9364 34.207 39.8979C34.2242 39.8624 34.2422 39.8274 34.2607 39.7925C34.2774 39.7613 34.2947 39.7304 34.3125 39.6997C34.3333 39.6638 34.3536 39.6275 34.376 39.5923C34.3916 39.5678 34.4085 39.5441 34.4248 39.52C34.4493 39.4839 34.4728 39.4469 34.499 39.4116C35.1545 38.5291 36.2318 38.0885 37.4453 38.0884Z" fill="white"/>
<path d="M37.4477 36.6466C39.0386 36.6466 40.6979 37.2285 42.1207 38.285C42.9349 38.8893 43.6214 39.6148 44.1471 40.4095C45.2721 39.5513 45.999 38.197 45.999 36.6718C45.999 34.0764 43.8955 31.9729 41.3001 31.9729C42.5974 31.9729 43.7721 31.4472 44.6224 30.5969C45.4726 29.7467 45.9983 28.572 45.9983 27.2746C45.9983 24.6793 43.8947 22.5757 41.2994 22.5757H29.3609C28.634 22.5757 27.9258 22.6586 27.2465 22.8151C27.0958 22.8497 26.9458 22.8887 26.7979 22.9305C26.6501 22.9723 26.503 23.0185 26.358 23.0675C26.2852 23.092 26.2131 23.1173 26.1417 23.1439C25.9982 23.1966 25.8568 23.2521 25.7162 23.3112C25.3665 23.4591 25.0268 23.6278 24.7001 23.816C24.5696 23.891 24.4405 23.9696 24.3143 24.0504C24.1247 24.1723 23.9393 24.3007 23.759 24.4355C23.6386 24.5256 23.5211 24.618 23.4057 24.7131C23.2903 24.8083 23.1771 24.9064 23.066 25.0074C22.8446 25.2086 22.6326 25.4206 22.4307 25.6427C22.3297 25.7537 22.2317 25.867 22.1365 25.9824C22.0413 26.0977 21.9483 26.216 21.8588 26.3357C21.724 26.516 21.5956 26.7013 21.4738 26.891C21.3923 27.0179 21.3144 27.1463 21.2394 27.2768C21.0512 27.6035 20.8824 27.9424 20.7346 28.2929C20.6755 28.4328 20.6192 28.5749 20.5673 28.7184C20.5413 28.7898 20.5154 28.8619 20.4908 28.9347C20.4418 29.0796 20.3964 29.226 20.3538 29.3746C20.3113 29.5232 20.2731 29.6724 20.2384 29.8231C20.0812 30.5025 19.999 31.2106 19.999 31.9375C19.999 32.0991 20.0034 32.2599 20.0113 32.4193C20.0235 32.6587 20.0445 32.8959 20.074 33.1303C20.0942 33.2868 20.1173 33.4418 20.1447 33.5954C20.1995 33.9026 20.2695 34.2048 20.3538 34.5012C20.3957 34.649 20.4418 34.7961 20.4908 34.9411C20.5154 35.0139 20.5406 35.086 20.5673 35.1574C20.6199 35.3009 20.6755 35.4423 20.7346 35.5829C20.7642 35.6528 20.7944 35.7228 20.8262 35.7913C20.8889 35.9298 20.9545 36.0661 21.023 36.2009C21.0923 36.3358 21.1644 36.4685 21.2394 36.599C22.8555 39.4093 25.8879 41.3015 29.3623 41.3015L32.4474 41.3362C32.4474 41.1393 32.4589 40.9431 32.482 40.7499C32.5786 39.9307 32.8685 39.1908 33.343 38.5511C33.8146 37.9158 34.4348 37.4269 35.1855 37.098C35.8699 36.798 36.6307 36.6459 37.4477 36.6459" fill="white"/>
<path d="M29.2876 32.0273C29.1156 32.0273 28.9756 31.8719 28.9756 31.6808V30.69C28.9756 30.4989 29.1156 30.3435 29.2876 30.3435C29.4419 30.3415 29.7888 30.3187 29.9626 29.605C30.0553 29.2249 30.0152 28.9863 29.9831 28.8913H29.8654C29.4473 28.8913 29.1076 28.5141 29.1076 28.0499C29.1085 27.5866 29.4482 27.2095 29.8663 27.2095H30.0446C30.4949 27.2095 30.8943 27.4292 31.1689 27.8282C31.5442 28.3726 31.6378 29.1813 31.4256 30.0465C31.0913 31.4125 30.2362 32.0273 29.2876 32.0273Z" fill="#FD7FCD"/>
<path d="M24.8491 32.0273C24.6771 32.0273 24.5371 31.8719 24.5371 31.6808V30.69C24.5371 30.4989 24.6771 30.3435 24.8491 30.3435C25.0034 30.3415 25.3503 30.3187 25.5241 29.605C25.6168 29.2249 25.5767 28.9863 25.5446 28.8913H25.4269C25.0088 28.8913 24.6691 28.5141 24.6691 28.0499C24.67 27.5866 25.0097 27.2095 25.4278 27.2095H25.6061C26.0564 27.2095 26.4558 27.4292 26.7304 27.8282C27.1057 28.3726 27.1993 29.1813 26.9871 30.0465C26.6528 31.4125 25.7977 32.0273 24.8491 32.0273Z" fill="#FD7FCD"/>
</g>
<defs>
<filter id="filter0_d_842_9888" x="0.636719" y="0.937256" width="70.4004" height="70.3999" filterUnits="userSpaceOnUse" color-interpolation-filters="sRGB">
<feFlood flood-opacity="0" result="BackgroundImageFix"/>
<feColorMatrix in="SourceAlpha" type="matrix" values="0 0 0 0 0 0 0 0 0 0 0 0 0 0 0 0 0 0 127 0" result="hardAlpha"/>
<feOffset dx="2" dy="2"/>
<feGaussianBlur stdDeviation="6"/>
<feComposite in2="hardAlpha" operator="out"/>
<feColorMatrix type="matrix" values="0 0 0 0 0 0 0 0 0 0 0 0 0 0 0 0 0 0 0.1 0"/>
<feBlend mode="normal" in2="BackgroundImageFix" result="effect1_dropShadow_842_9888"/>
<feBlend mode="normal" in="SourceGraphic" in2="effect1_dropShadow_842_9888" result="shape"/>
</filter>
</defs>
</svg>
