<svg width="72" height="72" viewBox="0 0 72 72" fill="none" xmlns="http://www.w3.org/2000/svg">
<g filter="url(#filter0_d_842_9903)">
<circle cx="33.8369" cy="34.1372" r="22.1" fill="#FD7FCD" stroke="white" stroke-width="2.2"/>
<path d="M25.6789 45.4473V24.0394C25.6789 23.3826 25.1465 22.8501 24.4896 22.8501C23.8328 22.8501 23.3003 23.3826 23.3003 24.0394V45.4473C23.3003 46.1042 23.8328 46.6366 24.4896 46.6366C25.1465 46.6366 25.6789 46.1042 25.6789 45.4473Z" fill="white"/>
<path d="M25.6793 44.2583H23.3007C22.6438 44.2583 22.1113 44.7908 22.1113 45.4476C22.1113 46.1045 22.6438 46.637 23.3007 46.637H25.6793C26.3362 46.637 26.8686 46.1045 26.8686 45.4476C26.8686 44.7908 26.3362 44.2583 25.6793 44.2583Z" fill="white"/>
<path d="M45.5625 38.7053C45.5625 38.8474 45.4978 38.9877 45.3893 39.0795C39.6227 43.9576 33.8461 34.5063 28.0787 38.2425C27.7158 38.4776 27.1875 38.2415 27.1875 37.8091V24.657C27.1875 24.5149 27.2522 24.3746 27.3607 24.2829C33.1273 19.4047 38.9039 28.856 44.6713 25.1198C45.0342 24.8847 45.5625 25.1208 45.5625 25.5532V38.7053Z" fill="white"/>
</g>
<defs>
<filter id="filter0_d_842_9903" x="0.636719" y="0.937256" width="70.4004" height="70.3999" filterUnits="userSpaceOnUse" color-interpolation-filters="sRGB">
<feFlood flood-opacity="0" result="BackgroundImageFix"/>
<feColorMatrix in="SourceAlpha" type="matrix" values="0 0 0 0 0 0 0 0 0 0 0 0 0 0 0 0 0 0 127 0" result="hardAlpha"/>
<feOffset dx="2" dy="2"/>
<feGaussianBlur stdDeviation="6"/>
<feComposite in2="hardAlpha" operator="out"/>
<feColorMatrix type="matrix" values="0 0 0 0 0 0 0 0 0 0 0 0 0 0 0 0 0 0 0.1 0"/>
<feBlend mode="normal" in2="BackgroundImageFix" result="effect1_dropShadow_842_9903"/>
<feBlend mode="normal" in="SourceGraphic" in2="effect1_dropShadow_842_9903" result="shape"/>
</filter>
</defs>
</svg>
