<svg width="106" height="106" viewBox="0 0 106 106" fill="none" xmlns="http://www.w3.org/2000/svg">
<path d="M88.6956 45.6891C88.8771 45.6892 89.0501 45.7692 89.167 45.908C89.2836 46.0468 89.3337 46.2308 89.3029 46.4094L87.8803 54.6022C87.8334 54.8834 87.8117 55.144 87.8117 55.3814C87.8119 56.0449 87.9936 56.4261 88.2495 56.6513C88.5843 56.9313 88.9581 57.0674 89.3942 57.0674C89.9112 57.0673 90.4323 56.9059 90.9659 56.5503L90.9732 56.5455C91.5212 56.1899 92.0212 55.6661 92.4655 54.9521C92.8979 54.24 93.2112 53.3617 93.3902 52.3042V52.3018L94.4509 46.199L94.4797 46.0932C94.567 45.8543 94.7951 45.6893 95.0569 45.6891H97.385C97.5663 45.6893 97.7383 45.7694 97.8552 45.908C97.9719 46.0469 98.0219 46.2307 97.9911 46.4094L95.6377 60.0111C95.4239 61.2404 95.0879 62.2851 94.6144 63.1221L94.6156 63.1233C94.1718 63.9368 93.6289 64.5942 92.979 65.0714C92.3693 65.5476 91.7117 65.8893 91.0068 66.0851C90.3363 66.2713 89.6684 66.3664 89.0058 66.3665C87.7493 66.3664 86.6369 66.1068 85.6965 65.5584L85.6917 65.556C84.8285 65.0417 84.1058 64.4346 83.5368 63.7329C83.4315 63.6028 83.3837 63.4348 83.4045 63.2688C83.4255 63.1023 83.514 62.9516 83.6486 62.8515L85.4584 61.5071L85.563 61.4446C85.6727 61.3928 85.796 61.3744 85.9178 61.3928C86.0799 61.4175 86.2262 61.5058 86.323 61.6382C87.0567 62.6408 87.9874 63.1183 89.161 63.1185C89.8518 63.1184 90.4603 62.8689 91.008 62.3356C91.5261 61.831 91.96 60.8969 92.2274 59.4099L92.3152 58.9144C92.127 59.0812 91.931 59.2415 91.7259 59.3931L91.7187 59.3979C90.8148 60.0463 89.7734 60.367 88.6186 60.3671C87.8535 60.3671 87.1349 60.1997 86.4745 59.8596L86.4613 59.8524C85.7947 59.4887 85.259 58.9709 84.8596 58.312C84.4475 57.632 84.2536 56.8445 84.2535 55.9755V55.3297C84.2535 55.3153 84.2537 55.2997 84.2547 55.2852C84.2736 55.0206 84.3111 54.7419 84.3653 54.4507L85.7614 46.2014C85.8118 45.9055 86.0685 45.6891 86.3687 45.6891H88.6956Z" fill="#4A4F59"/>
<path d="M28.5732 45.6891C28.7549 45.6894 28.9277 45.77 29.0446 45.9092C29.1611 46.0485 29.2108 46.2329 29.1792 46.4118L27.6833 54.9004C27.6666 55.0658 27.6486 55.2174 27.6316 55.3538L27.6304 55.3646C27.6182 55.4498 27.6111 55.5585 27.6111 55.6917C27.6113 56.3478 27.797 56.727 28.0657 56.9543C28.3993 57.2363 28.7836 57.3776 29.2454 57.3776C29.7684 57.3775 30.2928 57.2207 30.8267 56.8798C31.3769 56.5222 31.8773 56.0053 32.3202 55.3093C32.7516 54.6314 33.0629 53.7965 33.2413 52.7912L34.4054 46.1978L34.4342 46.0908C34.5222 45.853 34.7503 45.6892 35.0115 45.6891H37.3383C37.5198 45.6892 37.6928 45.7692 37.8097 45.908C37.9264 46.047 37.9768 46.2318 37.9456 46.4106L36.2392 56.2112L36.2356 56.2256C36.223 56.2886 36.21 56.3677 36.1959 56.4625V56.7511C36.196 57.1066 36.291 57.2335 36.3559 57.2862C36.5001 57.3808 36.7256 57.4545 37.0798 57.4546C37.288 57.4547 37.4833 57.5603 37.5969 57.7348C37.71 57.9092 37.728 58.1303 37.6438 58.3204L36.8417 60.1302C36.743 60.3525 36.5221 60.4955 36.2789 60.4958C35.2554 60.4958 34.3712 60.2497 33.7212 59.6672C33.7159 59.6625 33.7106 59.6565 33.7055 59.6516C33.3729 59.3308 33.1415 58.9347 32.9948 58.4827C31.7815 59.913 30.2736 60.6771 28.4697 60.6773C27.6841 60.6773 26.9463 60.4988 26.2679 60.1398L26.2607 60.1362C25.5989 59.7751 25.0631 59.2701 24.6626 58.6294L24.659 58.6222C24.2468 57.9422 24.0518 57.1548 24.0517 56.2857C24.0517 56.0462 24.0609 55.806 24.0793 55.5666C24.0975 55.313 24.1253 55.0513 24.1611 54.7826L24.1647 54.7597L25.639 46.2002L25.6667 46.0932C25.7539 45.8541 25.983 45.6892 26.2451 45.6891H28.5732Z" fill="#4A4F59"/>
<path fill-rule="evenodd" clip-rule="evenodd" d="M68.6844 40.0144C68.8149 40.0437 68.9336 40.1158 69.0211 40.2201C69.1378 40.3595 69.1874 40.5437 69.1558 40.7227L66.4153 56.2124L66.4129 56.2256C66.4003 56.2885 66.3872 56.3678 66.3732 56.4625V56.7511C66.3733 57.1059 66.467 57.2333 66.5319 57.2862C66.6762 57.381 66.9023 57.4546 67.257 57.4546C67.4652 57.4547 67.6594 57.5603 67.7729 57.7348C67.8862 57.9092 67.9041 58.1302 67.8198 58.3204L67.0177 60.1302C66.919 60.3524 66.6982 60.4957 66.455 60.4958C65.4317 60.4957 64.5483 60.2494 63.8984 59.6672C63.893 59.6624 63.8868 59.6566 63.8816 59.6516C63.5758 59.3567 63.3579 58.9958 63.2106 58.5862C62.869 58.9761 62.4925 59.3369 62.0802 59.6648L62.0742 59.6696C61.2031 60.3427 60.1891 60.6773 59.0595 60.6773C58.085 60.6773 57.1663 60.4225 56.3153 59.9198L56.3069 59.9137C55.4533 59.3899 54.7698 58.6638 54.2566 57.7516L54.2494 57.7384C53.7453 56.7884 53.5052 55.6852 53.505 54.4507C53.505 53.0627 53.7118 51.8038 54.14 50.6868C54.5595 49.5753 55.1234 48.6192 55.8367 47.8308L55.8415 47.8248L56.1145 47.5434C56.7597 46.9043 57.4628 46.3988 58.2249 46.0342C59.1102 45.6018 60.0195 45.3789 60.9474 45.3789C61.9657 45.3789 62.876 45.6298 63.6483 46.1581C63.9569 46.3643 64.2359 46.5936 64.4888 46.8423L65.6168 40.5075L65.6457 40.4016C65.7337 40.1639 65.9618 40 66.2229 40H68.5498L68.6844 40.0144ZM61.1543 48.6269C60.4999 48.6269 59.8618 48.831 59.229 49.2678L59.2254 49.2702C58.622 49.6825 58.1083 50.2909 57.6982 51.1269C57.3184 51.9192 57.115 52.908 57.115 54.114C57.1151 54.8845 57.2486 55.4974 57.4854 55.9755C57.7499 56.4568 58.0729 56.7981 58.4462 57.0253C58.8577 57.2652 59.2664 57.3776 59.68 57.3776C60.1956 57.3776 60.6942 57.2166 61.1867 56.869L61.1939 56.8641C61.7099 56.5103 62.1684 56.0053 62.5612 55.3297L62.5636 55.3261C62.9674 54.6427 63.2555 53.8279 63.4174 52.873L63.4186 52.8706L63.8479 50.4102C63.556 49.8568 63.1887 49.4393 62.7488 49.1416L62.738 49.1355C62.2542 48.7941 61.7317 48.6269 61.1543 48.6269Z" fill="#4A4F59"/>
<path fill-rule="evenodd" clip-rule="evenodd" d="M83.9553 40.0144C84.0857 40.0437 84.2044 40.1158 84.292 40.2201C84.4086 40.3595 84.4583 40.5437 84.4266 40.7227L81.6861 56.2124L81.6837 56.2256C81.6714 56.2872 81.6577 56.3644 81.644 56.4565V56.7511C81.6441 57.106 81.7378 57.2333 81.8027 57.2862C81.947 57.381 82.1731 57.4546 82.5279 57.4546C82.736 57.4547 82.9302 57.5603 83.0437 57.7348C83.157 57.9092 83.1749 58.1302 83.0906 58.3204L82.2886 60.1302C82.1898 60.3524 81.969 60.4957 81.7258 60.4958C80.7025 60.4957 79.8192 60.2494 79.1692 59.6672C79.1638 59.6624 79.1576 59.6566 79.1524 59.6516C78.8463 59.3565 78.6287 58.995 78.4814 58.585C78.1396 58.9752 77.7635 59.3367 77.351 59.6648L77.345 59.6696C76.4739 60.3427 75.4599 60.6773 74.3303 60.6773C73.3558 60.6773 72.4372 60.4225 71.5861 59.9198L71.5777 59.9137C70.7241 59.3899 70.0407 58.6638 69.5274 57.7516L69.5202 57.7384C69.0161 56.7884 68.776 55.6852 68.7758 54.4507C68.7758 53.0627 68.9826 51.8038 69.4108 50.6868C69.8302 49.5754 70.3931 48.6192 71.1063 47.8308L71.1123 47.8248C71.8307 47.0512 72.6249 46.4508 73.4957 46.0342C74.381 45.6018 75.2903 45.3789 76.2182 45.3789C77.2365 45.3789 78.1469 45.6298 78.9191 46.1581C79.2277 46.3643 79.5067 46.5936 79.7597 46.8423L80.8876 40.5075L80.9165 40.4016C81.0045 40.1639 81.2326 40 81.4937 40H83.8206L83.9553 40.0144ZM76.4251 48.6269C75.7706 48.6269 75.1316 48.8308 74.4986 49.2678L74.4962 49.2702C73.8928 49.6825 73.3791 50.2909 72.969 51.1269C72.5892 51.9192 72.3858 52.908 72.3858 54.114C72.3859 54.8845 72.5194 55.4974 72.7562 55.9755C73.0207 56.4568 73.3437 56.7981 73.717 57.0253C74.1285 57.2652 74.5372 57.3776 74.9508 57.3776C75.4665 57.3776 75.965 57.2166 76.4575 56.869L76.4648 56.8641C76.9807 56.5103 77.4392 56.0053 77.832 55.3297L77.8344 55.3261C78.2382 54.6427 78.5263 53.8279 78.6882 52.873V52.8706L79.1187 50.4102C78.8268 49.8568 78.4595 49.4393 78.0196 49.1416L78.0088 49.1355C77.525 48.7941 77.0025 48.627 76.4251 48.6269Z" fill="#4A4F59"/>
<path fill-rule="evenodd" clip-rule="evenodd" d="M16.3476 40.8273C17.7188 40.8274 18.9164 41.0432 19.9154 41.5044C20.8982 41.958 21.6762 42.588 22.2147 43.4055H22.2123C22.7452 44.1972 23.0143 45.0829 23.0143 46.0463C23.0142 47.7549 22.4619 49.1348 21.2815 50.0711C20.5249 50.6712 19.6151 51.1127 18.5686 51.4155C18.7466 51.5654 18.911 51.7249 19.058 51.8965L19.3671 52.2705C19.659 52.6516 19.901 53.0531 20.0898 53.4742C20.3219 53.992 20.5115 54.5052 20.6574 55.0123L20.8871 55.6773C20.9653 55.8872 21.045 56.0865 21.1264 56.2737C21.2583 56.5769 21.4352 56.8044 21.6483 56.9748C21.839 57.1 22.1463 57.196 22.6307 57.196C22.8373 57.1961 23.0303 57.3003 23.1442 57.4726C23.2578 57.6451 23.2782 57.8635 23.1971 58.0534L22.2916 60.1735C22.1948 60.3998 21.9726 60.5471 21.7264 60.5475C20.8944 60.5475 20.1561 60.3875 19.5619 60.0135C19.0188 59.6716 18.5728 59.2266 18.2307 58.6836C18.2262 58.6764 18.2217 58.6681 18.2175 58.6607C17.9258 58.1503 17.6636 57.5969 17.4298 57.0036C17.4272 56.997 17.4238 56.9888 17.4214 56.982C17.2189 56.4082 16.9998 55.842 16.7636 55.2852L16.76 55.2792C16.5405 54.7461 16.2607 54.2726 15.9219 53.8566L15.9147 53.8482C15.604 53.4529 15.1776 53.1215 14.6159 52.8634L14.6099 52.861C14.1977 52.6664 13.6602 52.5389 12.9805 52.4966L11.6782 59.8584C11.6259 60.1521 11.3704 60.3669 11.0721 60.3671H8.61535C8.4336 60.3671 8.26094 60.2861 8.14396 60.147C8.02714 60.0077 7.97784 59.8234 8.00928 59.6444L11.1635 41.8014C11.2085 41.5469 11.4081 41.3476 11.6625 41.3023C12.4464 41.163 13.1808 41.0496 13.8644 40.962C14.5857 40.8719 15.4159 40.8273 16.3476 40.8273ZM16.1924 44.1018C15.7604 44.1018 15.3653 44.1175 15.008 44.1499L15.0092 44.1511C14.8154 44.1696 14.6278 44.1934 14.4464 44.222L13.5649 49.18H14.9767C16.4157 49.18 17.4861 48.8849 18.2463 48.3587L18.2512 48.3551C19.0058 47.8424 19.3513 47.1918 19.3515 46.3565C19.3515 45.7033 19.1038 45.189 18.5758 44.7692L18.5698 44.7644C18.0619 44.3501 17.2965 44.1019 16.1924 44.1018Z" fill="#4A4F59"/>
<path d="M48.1249 45.3789C49.4317 45.379 50.5385 45.787 51.379 46.6451L51.5293 46.8027C52.2554 47.6011 52.6188 48.5758 52.6188 49.6923C52.6187 50.1676 52.5625 50.7464 52.4564 51.4179L52.4552 51.4276L50.9809 59.8572C50.9292 60.1514 50.6735 60.3668 50.3749 60.3671H48.0468C47.8651 60.367 47.6923 60.2861 47.5754 60.147C47.4586 60.0077 47.4093 59.8234 47.4407 59.6444L48.8633 51.6019L48.8669 51.5839C48.9525 51.1729 48.9973 50.9 49.0112 50.7481C49.027 50.5572 49.0352 50.3855 49.0353 50.2347C49.0351 49.6914 48.8786 49.3255 48.6204 49.067L48.6108 49.0574C48.3668 48.8023 48.0291 48.6534 47.5297 48.6533C47.0801 48.6534 46.5391 48.8205 45.8943 49.2293C45.2855 49.6154 44.6898 50.2378 44.1194 51.1341C43.5885 51.9781 43.1876 53.0944 42.9385 54.506L42.0077 59.8572C41.9561 60.1515 41.7004 60.3668 41.4017 60.3671H39.0736C38.8921 60.367 38.7191 60.2859 38.6022 60.147C38.4857 60.0081 38.4365 59.8242 38.4675 59.6456L40.8208 46.199L40.8497 46.092C40.9373 45.8537 41.1654 45.6892 41.4269 45.6891H43.6768C43.8593 45.6892 44.0325 45.7703 44.1494 45.9104C44.266 46.0506 44.3157 46.236 44.2829 46.4154L44.1759 46.9975C44.4046 46.7897 44.647 46.5966 44.9034 46.4191L44.9082 46.4154C45.9128 45.7331 46.9889 45.3789 48.1249 45.3789Z" fill="#4A4F59"/>
</svg>
