<svg width="91" height="28" viewBox="0 0 91 28" fill="none" xmlns="http://www.w3.org/2000/svg">
<path d="M81.6077 6.34611C81.7892 6.34619 81.9622 6.42616 82.0791 6.56497C82.1957 6.70381 82.2458 6.88776 82.215 7.06642L80.7924 15.2592C80.7456 15.5404 80.7238 15.801 80.7238 16.0384C80.724 16.7019 80.9057 17.0831 81.1616 17.3083C81.4964 17.5883 81.8702 17.7244 82.3064 17.7244C82.8233 17.7243 83.3444 17.5629 83.8781 17.2073L83.8853 17.2025C84.4333 16.8469 84.9333 16.3231 85.3776 15.6091C85.81 14.8969 86.1233 14.0187 86.3023 12.9612V12.9588L87.363 6.85598L87.3918 6.75015C87.4791 6.51131 87.7072 6.34629 87.969 6.34611H90.2971C90.4784 6.34628 90.6504 6.42637 90.7673 6.56497C90.884 6.70383 90.9341 6.88768 90.9032 7.06642L88.5499 20.6681C88.336 21.8974 88 22.9421 87.5265 23.779L87.5277 23.7803C87.0839 24.5937 86.541 25.2512 85.8911 25.7283C85.2814 26.2046 84.6238 26.5463 83.9189 26.7421C83.2484 26.9283 82.5805 27.0234 81.918 27.0235C80.6614 27.0234 79.549 26.7638 78.6086 26.2154L78.6038 26.2129C77.7406 25.6987 77.0179 25.0916 76.4489 24.3899C76.3437 24.2598 76.2958 24.0918 76.3166 23.9258C76.3376 23.7593 76.4261 23.6086 76.5607 23.5085L78.3705 22.1641L78.4751 22.1015C78.5848 22.0498 78.7081 22.0314 78.8299 22.0498C78.992 22.0745 79.1383 22.1628 79.2351 22.2951C79.9688 23.2978 80.8995 23.7753 82.0731 23.7754C82.764 23.7754 83.3724 23.5259 83.9201 22.9926C84.4382 22.488 84.8721 21.5539 85.1395 20.0669L85.2273 19.5714C85.0391 19.7382 84.8431 19.8985 84.6381 20.05L84.6308 20.0548C83.7269 20.7033 82.6855 21.024 81.5307 21.0241C80.7656 21.0241 80.047 20.8567 79.3866 20.5166L79.3734 20.5094C78.7068 20.1457 78.1711 19.6279 77.7717 18.969C77.3596 18.289 77.1657 17.5015 77.1656 16.6325V15.9867C77.1656 15.9723 77.1658 15.9566 77.1668 15.9422C77.1857 15.6776 77.2232 15.3989 77.2774 15.1077L78.6735 6.85838C78.7239 6.56246 78.9806 6.34612 79.2808 6.34611H81.6077Z" fill="#4A4F59"/>
<path d="M21.4853 6.34611C21.667 6.34634 21.8398 6.42696 21.9567 6.56617C22.0732 6.70549 22.1229 6.88993 22.0913 7.06882L20.5954 15.5574C20.5787 15.7228 20.5607 15.8743 20.5437 16.0108L20.5425 16.0216C20.5304 16.1068 20.5233 16.2155 20.5233 16.3487C20.5234 17.0048 20.7091 17.384 20.9778 17.6113C21.3114 17.8932 21.6957 18.0346 22.1575 18.0346C22.6805 18.0345 23.2049 17.8777 23.7388 17.5368C24.289 17.1792 24.7894 16.6623 25.2323 15.9663C25.6637 15.2884 25.975 14.4535 26.1535 13.4482L27.3175 6.85477L27.3464 6.74775C27.4343 6.50995 27.6624 6.34614 27.9236 6.34611H30.2504C30.4319 6.34619 30.6049 6.42618 30.7218 6.56497C30.8385 6.70403 30.8889 6.88876 30.8577 7.06762L29.1513 16.8682L29.1477 16.8826C29.1352 16.9455 29.1221 17.0247 29.1081 17.1195V17.4081C29.1082 17.7635 29.2031 17.8905 29.268 17.9432C29.4122 18.0378 29.6377 18.1115 29.9919 18.1116C30.2001 18.1117 30.3954 18.2173 30.509 18.3918C30.6221 18.5662 30.6401 18.7873 30.5559 18.9774L29.7538 20.7872C29.6551 21.0094 29.4342 21.1525 29.191 21.1527C28.1675 21.1527 27.2833 20.9067 26.6333 20.3242C26.628 20.3195 26.6227 20.3135 26.6176 20.3086C26.285 19.9878 26.0536 19.5916 25.9069 19.1397C24.6936 20.57 23.1857 21.3341 21.3819 21.3343C20.5962 21.3343 19.8584 21.1558 19.18 20.7968L19.1728 20.7932C18.511 20.4321 17.9752 19.9271 17.5747 19.2864L17.5711 19.2792C17.159 18.5992 16.9639 17.8118 16.9638 16.9427C16.9638 16.7032 16.9731 16.463 16.9915 16.2236C17.0096 15.97 17.0374 15.7083 17.0732 15.4396L17.0768 15.4167L18.5511 6.85718L18.5788 6.75015C18.666 6.51111 18.8951 6.34622 19.1572 6.34611H21.4853Z" fill="#4A4F59"/>
<path fill-rule="evenodd" clip-rule="evenodd" d="M61.5965 0.671413C61.727 0.700703 61.8457 0.772764 61.9333 0.877044C62.0499 1.01644 62.0996 1.20069 62.0679 1.3797L59.3274 16.8694L59.325 16.8826C59.3124 16.9455 59.2993 17.0247 59.2853 17.1195V17.4081C59.2854 17.7629 59.3791 17.8903 59.444 17.9432C59.5883 18.038 59.8144 18.1116 60.1692 18.1116C60.3773 18.1117 60.5715 18.2173 60.685 18.3918C60.7983 18.5662 60.8162 18.7872 60.7319 18.9774L59.9299 20.7872C59.8311 21.0094 59.6103 21.1526 59.3671 21.1527C58.3438 21.1527 57.4604 20.9064 56.8105 20.3242C56.8051 20.3194 56.7989 20.3136 56.7937 20.3086C56.4879 20.0137 56.27 19.6528 56.1227 19.2431C55.7811 19.6331 55.4046 19.9939 54.9923 20.3218L54.9863 20.3266C54.1152 20.9997 53.1012 21.3343 51.9716 21.3343C50.9971 21.3343 50.0784 21.0795 49.2274 20.5767L49.219 20.5707C48.3654 20.0469 47.682 19.3208 47.1687 18.4086L47.1615 18.3954C46.6574 17.4453 46.4173 16.3422 46.4171 15.1077C46.4171 13.7197 46.6239 12.4608 47.0521 11.3438C47.4716 10.2323 48.0356 9.27619 48.7488 8.4878L48.7536 8.48178L49.0266 8.20039C49.6718 7.56128 50.375 7.05576 51.137 6.69123C52.0224 6.25876 52.9316 6.03586 53.8595 6.03586C54.8778 6.03592 55.7882 6.28675 56.5604 6.81509C56.869 7.0213 57.148 7.25056 57.401 7.49932L58.5289 1.16445L58.5578 1.05862C58.6458 0.820918 58.8739 0.656982 59.135 0.656982H61.4619L61.5965 0.671413ZM54.0664 9.28387C53.412 9.28387 52.7739 9.48798 52.1411 9.92481L52.1375 9.92721C51.5341 10.3395 51.0204 10.9479 50.6103 11.7839C50.2305 12.5762 50.0271 13.565 50.0271 14.771C50.0272 15.5415 50.1607 16.1544 50.3975 16.6325C50.662 17.1138 50.985 17.4551 51.3583 17.6823C51.7698 17.9222 52.1785 18.0346 52.5921 18.0346C53.1077 18.0346 53.6063 17.8736 54.0988 17.5259L54.1061 17.5211C54.6221 17.1672 55.0805 16.6623 55.4733 15.9867L55.4757 15.9831C55.8795 15.2996 56.1676 14.4849 56.3295 13.53L56.3307 13.5276L56.76 11.0672C56.4681 10.5138 56.1008 10.0962 55.6609 9.79854L55.6501 9.79253C55.1663 9.45105 54.6438 9.28393 54.0664 9.28387Z" fill="#4A4F59"/>
<path fill-rule="evenodd" clip-rule="evenodd" d="M76.8674 0.671413C76.9978 0.700713 77.1165 0.772763 77.2041 0.877044C77.3207 1.01643 77.3704 1.2007 77.3388 1.3797L74.5982 16.8694L74.5958 16.8826C74.5835 16.9442 74.5698 17.0214 74.5561 17.1135V17.4081C74.5562 17.7629 74.6499 17.8903 74.7148 17.9432C74.8591 18.0379 75.0852 18.1116 75.44 18.1116C75.6481 18.1117 75.8423 18.2173 75.9558 18.3918C76.0691 18.5662 76.087 18.7872 76.0027 18.9774L75.2007 20.7872C75.1019 21.0094 74.8811 21.1526 74.6379 21.1527C73.6146 21.1527 72.7313 20.9064 72.0813 20.3242C72.0759 20.3194 72.0697 20.3136 72.0645 20.3086C71.7584 20.0134 71.5408 19.652 71.3935 19.2419C71.0517 19.6322 70.6756 19.9937 70.2631 20.3218L70.2571 20.3266C69.386 20.9997 68.3721 21.3343 67.2424 21.3343C66.2679 21.3343 65.3493 21.0795 64.4982 20.5767L64.4898 20.5707C63.6362 20.0469 62.9528 19.3208 62.4395 18.4086L62.4323 18.3954C61.9282 17.4453 61.6881 16.3422 61.6879 15.1077C61.6879 13.7197 61.8948 12.4608 62.3229 11.3438C62.7423 10.2324 63.3052 9.27616 64.0184 8.4878L64.0244 8.48178C64.7428 7.70817 65.537 7.10776 66.4078 6.69123C67.2932 6.25877 68.2025 6.03586 69.1303 6.03586C70.1486 6.03593 71.059 6.28675 71.8312 6.81509C72.1398 7.0213 72.4188 7.25056 72.6718 7.49932L73.7997 1.16445L73.8286 1.05862C73.9166 0.820928 74.1447 0.656982 74.4058 0.656982H76.7327L76.8674 0.671413ZM69.3372 9.28387C68.6827 9.28387 68.0437 9.48777 67.4107 9.92481L67.4083 9.92721C66.8049 10.3395 66.2912 10.9479 65.8811 11.7839C65.5013 12.5762 65.2979 13.5649 65.2979 14.771C65.298 15.5415 65.4315 16.1544 65.6683 16.6325C65.9328 17.1138 66.2558 17.4551 66.6291 17.6823C67.0406 17.9222 67.4493 18.0346 67.8629 18.0346C68.3786 18.0346 68.8771 17.8736 69.3696 17.5259L69.3769 17.5211C69.8928 17.1672 70.3513 16.6623 70.7441 15.9867L70.7465 15.9831C71.1503 15.2997 71.4384 14.4849 71.6003 13.53V13.5276L72.0308 11.0672C71.739 10.5138 71.3716 10.0962 70.9317 9.79854L70.9209 9.79253C70.4371 9.45104 69.9146 9.28394 69.3372 9.28387Z" fill="#4A4F59"/>
<path fill-rule="evenodd" clip-rule="evenodd" d="M9.25967 1.48432C10.6309 1.48438 11.8285 1.70023 12.8275 2.16134C13.8103 2.61502 14.5883 3.24494 15.1268 4.06252H15.1244C15.6573 4.85419 15.9264 5.73986 15.9264 6.70326C15.9263 8.41186 15.374 9.79177 14.1936 10.7281C13.437 11.3281 12.5272 11.7697 11.4807 12.0725C11.6587 12.2223 11.8231 12.3819 11.9702 12.5535L12.2792 12.9275C12.5712 13.3086 12.8131 13.7101 13.0019 14.1312C13.234 14.649 13.4236 15.1622 13.5695 15.6693L13.7992 16.3342C13.8774 16.5442 13.9571 16.7435 14.0385 16.9307C14.1704 17.2339 14.3473 17.4613 14.5604 17.6318C14.7511 17.7569 15.0584 17.853 15.5428 17.853C15.7495 17.8531 15.9424 17.9573 16.0563 18.1296C16.1699 18.302 16.1903 18.5205 16.1092 18.7104L15.2037 20.8305C15.1069 21.0568 14.8847 21.2041 14.6385 21.2045C13.8065 21.2045 13.0682 21.0445 12.474 20.6705C11.9309 20.3286 11.4849 19.8836 11.1428 19.3405C11.1383 19.3334 11.1338 19.3251 11.1296 19.3177C10.8379 18.8073 10.5757 18.2539 10.3419 17.6606C10.3393 17.654 10.3359 17.6458 10.3335 17.639C10.131 17.0651 9.91193 16.499 9.67574 15.9422L9.67213 15.9362C9.45259 15.4031 9.17278 14.9296 8.83398 14.5136L8.82676 14.5052C8.51614 14.1099 8.08966 13.7785 7.52804 13.5203L7.52203 13.5179C7.10983 13.3233 6.57234 13.1959 5.89261 13.1536L4.59028 20.5154C4.53803 20.8091 4.28248 21.0239 3.98421 21.0241H1.52746C1.34571 21.0241 1.17305 20.9431 1.05607 20.804C0.939246 20.6647 0.889953 20.4804 0.921391 20.3014L4.0756 2.45836C4.12059 2.20389 4.32023 2.00454 4.57465 1.95931C5.35856 1.81996 6.09294 1.70663 6.77646 1.619C7.49777 1.52885 8.32797 1.48432 9.25967 1.48432ZM9.10454 4.75878C8.67246 4.75878 8.27745 4.77445 7.92006 4.80688L7.92126 4.80808C7.72755 4.82653 7.53991 4.85039 7.35848 4.87903L6.47704 9.83702H7.8888C9.3278 9.83699 10.3982 9.54192 11.1584 9.0157L11.1633 9.0121C11.9179 8.4994 12.2634 7.84876 12.2636 7.01351C12.2636 6.36031 12.0159 5.84601 11.4879 5.42618L11.4819 5.42137C10.974 5.00707 10.2086 4.75888 9.10454 4.75878Z" fill="#4A4F59"/>
<path d="M41.0371 6.03586C42.3438 6.03597 43.4506 6.444 44.2911 7.30211L44.4414 7.45964C45.1675 8.25809 45.5309 9.23282 45.5309 10.3493C45.5308 10.8246 45.4746 11.4034 45.3685 12.0749L45.3673 12.0845L43.893 20.5142C43.8413 20.8084 43.5856 21.0237 43.287 21.0241H40.9589C40.7772 21.024 40.6044 20.9431 40.4875 20.804C40.3707 20.6647 40.3214 20.4804 40.3528 20.3014L41.7754 12.2589L41.779 12.2409C41.8646 11.8299 41.9095 11.557 41.9233 11.4051C41.9391 11.2142 41.9473 11.0425 41.9474 10.8916C41.9473 10.3484 41.7907 9.98244 41.5325 9.72399L41.5229 9.71437C41.2789 9.4593 40.9412 9.31037 40.4418 9.31032C39.9922 9.31038 39.4512 9.47743 38.8064 9.88633C38.1976 10.2724 37.6019 10.8948 37.0315 11.7911C36.5006 12.6351 36.0997 13.7514 35.8506 15.163L34.9198 20.5142C34.8682 20.8084 34.6125 21.0238 34.3138 21.0241H31.9857C31.8042 21.0239 31.6312 20.9428 31.5143 20.804C31.3978 20.6651 31.3486 20.4812 31.3796 20.3026L33.7329 6.85598L33.7618 6.74895C33.8494 6.51064 34.0775 6.34623 34.339 6.34611H36.5889C36.7714 6.34619 36.9446 6.42727 37.0615 6.56737C37.1781 6.70761 37.2278 6.893 37.195 7.07243L37.088 7.65445C37.3167 7.44669 37.5591 7.25356 37.8155 7.07604L37.8203 7.07243C38.8249 6.39011 39.901 6.03586 41.0371 6.03586Z" fill="#4A4F59"/>
</svg>
