<svg width="52" height="52" viewBox="0 0 52 52" fill="none" xmlns="http://www.w3.org/2000/svg">
<g filter="url(#filter0_d_0_552)">
<rect x="12.0576" y="12.1372" width="24" height="24" rx="12" fill="#4A4F59"/>
<rect x="11.1576" y="11.2372" width="25.8" height="25.8" rx="12.9" stroke="white" stroke-width="1.8"/>
<path d="M23.1784 28.985H21.5989C21.2948 28.985 20.9939 28.9629 20.6976 28.9188C20.8009 29.1702 20.9372 29.4193 21.1084 29.6575C21.9662 30.8514 23.3617 31.3287 24.2707 30.7571C23.7566 30.2427 23.378 29.6332 23.18 28.9904C23.1796 28.9884 23.1788 28.9869 23.1784 28.985Z" fill="#F7F9FC"/>
<path d="M25.9528 25.2499C26.8591 25.2499 27.8023 25.5782 28.608 26.1742C29.0603 26.5088 29.444 26.9094 29.7403 27.3496C29.8851 27.2165 30.0148 27.0672 30.1254 26.9044C30.1484 26.8708 30.1701 26.8367 30.1911 26.8023C30.2544 26.6983 30.3107 26.5896 30.3584 26.4767C30.4066 26.3637 30.4466 26.2462 30.4776 26.1255C30.5297 25.9244 30.5572 25.7132 30.5572 25.4959C30.5572 25.2785 30.5297 25.0673 30.4776 24.8662C30.4361 24.7053 30.379 24.5503 30.3079 24.4037C30.2722 24.3302 30.2334 24.2586 30.1911 24.1894C30.1701 24.1546 30.148 24.1206 30.1254 24.0873C30.08 24.0204 30.0315 23.9554 29.9798 23.8932C29.9026 23.8 29.8187 23.7122 29.7286 23.6309C29.6688 23.5768 29.6063 23.5254 29.5411 23.477C29.4762 23.4287 29.4087 23.3834 29.3391 23.3413C29.1306 23.2148 28.9019 23.1181 28.6596 23.0558C28.4577 23.004 28.2457 22.9766 28.0275 22.9766C28.5952 22.9766 29.119 22.7905 29.5414 22.4761C29.6063 22.4278 29.6688 22.3763 29.729 22.3222C29.8187 22.241 29.903 22.1532 29.9802 22.06C30.0319 21.9977 30.0804 21.9331 30.1258 21.8658C30.1487 21.8322 30.1705 21.7981 30.1915 21.7637C30.2338 21.6945 30.2726 21.6229 30.3083 21.5494C30.3262 21.5127 30.3429 21.4756 30.3588 21.4377C30.4388 21.2493 30.4967 21.049 30.5285 20.8405C30.5475 20.7152 30.5576 20.5872 30.5576 20.4569C30.5576 20.2828 30.5398 20.1131 30.5064 19.9491C30.4811 19.8261 30.447 19.7062 30.4042 19.5906C30.3759 19.5132 30.3437 19.4378 30.3083 19.3643C30.273 19.2908 30.2338 19.2193 30.1915 19.15C30.1553 19.0909 30.1161 19.0336 30.0754 18.9776C30.0447 18.9354 30.0132 18.894 29.9798 18.8538C29.9026 18.7606 29.8187 18.6728 29.7286 18.5916C29.6688 18.5374 29.6063 18.486 29.5411 18.4377C29.119 18.1232 28.5948 17.9372 28.0271 17.9372H21.5989C21.0331 17.9372 20.4895 18.03 19.982 18.201C19.9428 18.2141 19.9039 18.2276 19.8655 18.242C19.7995 18.2659 19.7343 18.2918 19.6694 18.3185C19.6469 18.3278 19.6244 18.3371 19.6022 18.3468C19.4834 18.3978 19.3665 18.4535 19.2528 18.5135C19.1619 18.561 19.0722 18.6113 18.9849 18.6643C18.8117 18.7691 18.6451 18.884 18.4867 19.0085C18.4548 19.0332 18.4234 19.0584 18.3923 19.0843C18.315 19.1477 18.2401 19.2139 18.1667 19.2815C18.0782 19.3635 17.9924 19.4486 17.9101 19.5368C17.7858 19.6695 17.6685 19.8087 17.5594 19.9545C17.5353 19.9866 17.5113 20.0191 17.488 20.0519C17.441 20.1177 17.3959 20.1842 17.3521 20.2523C17.1117 20.6259 16.9195 21.0331 16.7844 21.4655C16.6368 21.9354 16.5576 22.437 16.5576 22.9572C16.5576 24.3004 17.0873 25.5206 17.9497 26.4217C18.0052 26.4798 18.0623 26.5366 18.1209 26.5923C18.296 26.7586 18.4832 26.9125 18.6808 27.0525C19.1091 27.3557 19.5871 27.5944 20.1 27.7533C20.2189 27.7901 20.34 27.8229 20.4627 27.8508C20.8281 27.9347 21.2086 27.9788 21.5992 27.9788H23.0293C23.0352 27.384 23.2134 26.8247 23.5559 26.3657C24.0847 25.6567 24.9584 25.2503 25.9532 25.2503" fill="#F7F9FC"/>
<path d="M29.0392 28.134C28.8882 27.8656 28.6913 27.6061 28.4533 27.3674C28.3854 27.2994 28.3139 27.2329 28.239 27.1683C28.2017 27.1362 28.1633 27.1045 28.1244 27.0731C28.0856 27.0418 28.0456 27.0112 28.0048 26.9811C27.3509 26.4973 26.6136 26.2548 25.9515 26.2548C25.298 26.2548 24.7179 26.4911 24.3649 26.9644C24.2982 27.0538 24.2422 27.1482 24.196 27.2472C24.1498 27.3462 24.1141 27.449 24.0881 27.5558C24.0795 27.5914 24.0718 27.627 24.0652 27.6633C24.0392 27.8072 24.0306 27.9561 24.0384 28.1085C24.0403 28.1475 24.0434 28.187 24.0473 28.2264C24.0594 28.3421 24.0807 28.4592 24.111 28.5768C24.1312 28.6553 24.1553 28.7334 24.1832 28.812C24.2391 28.9686 24.311 29.1248 24.3972 29.2784C24.4189 29.3167 24.4414 29.355 24.4647 29.3929C24.5867 29.5901 24.7334 29.7815 24.9031 29.9622C25.06 30.1292 25.2359 30.287 25.4312 30.4313C25.4359 30.4348 25.4405 30.4379 25.4452 30.4413C25.4813 30.4676 25.5174 30.4939 25.5543 30.5187C25.5714 30.5303 25.5889 30.5415 25.6059 30.5527C25.6304 30.569 25.6545 30.5852 25.6789 30.6007C25.6995 30.6134 25.7201 30.6254 25.7407 30.6382C25.762 30.6513 25.7834 30.6645 25.8051 30.6773C25.8269 30.69 25.849 30.7016 25.8711 30.714C25.8917 30.7252 25.9119 30.7372 25.9325 30.748C25.9554 30.76 25.9787 30.7716 26.0016 30.7832C26.0214 30.7933 26.0412 30.8037 26.061 30.8134C26.0847 30.825 26.1084 30.8354 26.1325 30.8463C26.1519 30.8552 26.1713 30.8644 26.1907 30.873C26.2148 30.8834 26.2389 30.8931 26.2629 30.9031C26.2823 30.9109 26.3014 30.9194 26.3208 30.9271C26.3449 30.9368 26.3693 30.9453 26.3934 30.9542C26.4128 30.9611 26.4318 30.9689 26.4513 30.9754C26.4753 30.984 26.499 30.9913 26.5231 30.999C26.5425 31.0052 26.5623 31.0122 26.5817 31.018C26.6054 31.0253 26.6291 31.0315 26.6528 31.0381C26.6726 31.0435 26.6924 31.0497 26.7122 31.0547C26.7355 31.0609 26.7584 31.0659 26.7817 31.0717C26.8019 31.0768 26.8221 31.0818 26.8423 31.0864C26.8648 31.0915 26.8873 31.0953 26.9098 31.1C26.9304 31.1042 26.951 31.1085 26.9716 31.112C26.9937 31.1158 27.0155 31.1189 27.0376 31.1224C27.0586 31.1255 27.0795 31.1294 27.1001 31.1321C27.1215 31.1348 27.1428 31.1371 27.1642 31.1394C27.1851 31.1417 27.2065 31.1445 27.2275 31.1464C27.2484 31.1483 27.2694 31.1495 27.29 31.151C27.3113 31.1526 27.3323 31.1541 27.3537 31.1553C27.3742 31.1564 27.3948 31.1564 27.415 31.1568C27.436 31.1572 27.4573 31.1584 27.4783 31.1584C27.4997 31.1584 27.521 31.1576 27.542 31.1572C27.5614 31.1568 27.5812 31.1568 27.6002 31.1561C27.6212 31.1553 27.6418 31.1533 27.6627 31.1518C27.6822 31.1506 27.7016 31.1495 27.7206 31.1479C27.7408 31.146 27.761 31.1433 27.7812 31.141C27.8002 31.1387 27.8196 31.1367 27.8386 31.134C27.8581 31.1313 27.8771 31.1278 27.8965 31.1243C27.9159 31.1212 27.9353 31.1182 27.9543 31.1147C27.973 31.1112 27.9908 31.1069 28.0091 31.1027C28.0285 31.0984 28.0483 31.0946 28.0673 31.0899C28.0848 31.0857 28.1019 31.0803 28.1194 31.0756C28.1388 31.0702 28.1586 31.0652 28.1776 31.0594C28.1943 31.0543 28.2102 31.0485 28.2265 31.0431C28.246 31.0366 28.2654 31.0304 28.2844 31.0234C28.3003 31.0176 28.3155 31.011 28.331 31.0048C28.35 30.9971 28.3694 30.9901 28.3881 30.982C28.4032 30.9754 28.4176 30.9681 28.4323 30.9611C28.451 30.9526 28.47 30.9441 28.4879 30.9348C28.5022 30.9275 28.5158 30.9194 28.5302 30.912C28.5484 30.9023 28.5667 30.8927 28.5846 30.8822C28.5981 30.8741 28.6113 30.8652 28.6245 30.8571C28.642 30.8463 28.6599 30.8354 28.6766 30.8242C28.6902 30.8153 28.7026 30.8053 28.7158 30.796C28.7321 30.7844 28.7488 30.7728 28.7647 30.7604C28.7779 30.75 28.7907 30.7388 28.8036 30.7283C28.8183 30.7159 28.8338 30.7039 28.8482 30.6912C28.8622 30.6788 28.875 30.6657 28.8886 30.6529C28.9014 30.6405 28.9146 30.6289 28.927 30.6162C28.9426 30.6003 28.9569 30.5837 28.9721 30.5674C28.9818 30.5566 28.9919 30.5465 29.0012 30.5357C29.0233 30.5102 29.0443 30.4835 29.0649 30.4564C29.0668 30.4541 29.0688 30.4518 29.0703 30.4495C29.1146 30.3899 29.1546 30.328 29.1895 30.2642C29.3126 30.0403 29.3802 29.7916 29.3957 29.5302C29.4 29.4555 29.4004 29.3797 29.3965 29.3031C29.3945 29.2648 29.3914 29.2266 29.3875 29.1879C29.3755 29.0722 29.3542 28.9551 29.3239 28.8375C29.3037 28.7594 29.2796 28.6808 29.2516 28.6023C29.1957 28.4457 29.1239 28.2895 29.0377 28.1359L29.0392 28.134Z" fill="#F7F9FC"/>
</g>
<defs>
<filter id="filter0_d_0_552" x="0.257629" y="0.337219" width="51.6" height="51.6" filterUnits="userSpaceOnUse" color-interpolation-filters="sRGB">
<feFlood flood-opacity="0" result="BackgroundImageFix"/>
<feColorMatrix in="SourceAlpha" type="matrix" values="0 0 0 0 0 0 0 0 0 0 0 0 0 0 0 0 0 0 127 0" result="hardAlpha"/>
<feOffset dx="2" dy="2"/>
<feGaussianBlur stdDeviation="6"/>
<feComposite in2="hardAlpha" operator="out"/>
<feColorMatrix type="matrix" values="0 0 0 0 0 0 0 0 0 0 0 0 0 0 0 0 0 0 0.1 0"/>
<feBlend mode="normal" in2="BackgroundImageFix" result="effect1_dropShadow_0_552"/>
<feBlend mode="normal" in="SourceGraphic" in2="effect1_dropShadow_0_552" result="shape"/>
</filter>
</defs>
</svg>
