<svg version="1.1" id="Layer_1" xmlns="http://www.w3.org/2000/svg" xmlns:xlink="http://www.w3.org/1999/xlink" x="0px" y="0px"
	 width="100%" viewBox="0 0 512 512" enable-background="new 0 0 512 512" xml:space="preserve">
<path fill="#252528" opacity="1.000000" stroke="none" 
	d="
M277.000000,513.000000 
	C184.689072,513.000000 92.878143,513.000000 1.033606,513.000000 
	C1.033606,342.397369 1.033606,171.794754 1.033606,1.096060 
	C171.560944,1.096060 342.121979,1.096060 512.841492,1.096060 
	C512.841492,171.666550 512.841492,342.333252 512.841492,513.000000 
	C434.461395,513.000000 355.980682,513.000000 277.000000,513.000000 
M198.636703,215.812881 
	C195.154694,215.453751 196.080109,218.031067 196.075119,219.813446 
	C196.035370,233.975906 196.052948,248.138519 196.052933,262.301086 
	C196.052933,269.083588 196.052933,275.866058 196.052933,282.637146 
	C199.589676,282.637146 202.624802,282.637146 206.034088,282.637146 
	C206.034088,267.534058 206.034088,252.806870 206.034088,236.879852 
	C207.593124,238.920227 208.487122,239.996170 209.279846,241.142181 
	C217.799362,253.458130 226.489029,265.662872 234.710541,278.175049 
	C237.614105,282.593903 240.820251,284.085724 245.716476,282.543549 
	C245.716476,260.321869 245.716476,238.242065 245.716476,216.054749 
	C242.539276,216.054749 239.594574,216.054749 235.981384,216.054749 
	C235.981384,231.257202 235.981384,246.226074 235.981384,262.552704 
	C225.367889,247.234161 215.546738,233.215439 205.941010,219.050613 
	C204.220062,216.512848 202.403549,215.301071 198.636703,215.812881 
M309.652130,245.913086 
	C306.717072,228.374527 296.907135,217.535522 281.577820,216.265823 
	C272.163757,215.486084 262.632416,216.121567 253.025208,216.121567 
	C253.025208,238.415771 253.025208,260.610413 253.025208,283.008545 
	C260.517883,283.008545 267.672729,283.011505 274.827545,283.007965 
	C296.979340,282.997070 310.532166,268.938904 309.652130,245.913086 
M346.644531,282.282715 
	C362.289551,278.945251 372.099823,266.527954 372.183807,249.956589 
	C372.270355,232.878357 362.904541,219.443268 347.099640,217.026978 
	C336.775635,215.448624 326.014526,216.729248 315.283020,216.729248 
	C315.283020,238.481171 315.283020,260.528900 315.283020,282.514252 
	C325.605316,282.514252 335.701691,282.514252 346.644531,282.282715 
M122.777252,256.349091 
	C132.199112,251.899658 136.258774,244.631897 135.153870,234.192047 
	C134.220673,225.374863 128.291138,217.632645 119.315956,216.633591 
	C109.384537,215.528076 99.235130,216.380936 89.265648,216.380936 
	C89.265648,238.582947 89.265648,260.676758 89.265648,282.749207 
	C92.470230,282.749207 95.389671,282.749207 98.906471,282.749207 
	C98.906471,263.617859 98.906471,244.741898 98.906471,225.732758 
	C104.339775,225.732758 109.170403,225.610840 113.992516,225.761566 
	C121.097336,225.983627 125.888649,230.772308 125.782188,237.305206 
	C125.673851,243.954468 120.920013,248.654083 113.896973,248.886963 
	C110.096153,249.012985 106.287720,248.909393 101.166924,248.909393 
	C102.443199,251.856613 102.960472,254.260620 104.327408,255.995010 
	C109.787949,262.923492 116.072639,269.266693 120.977386,276.550354 
	C125.605751,283.423645 131.435028,283.867432 138.838348,282.548096 
	C131.944229,274.298889 125.295853,266.343719 118.327690,258.005890 
	C120.003998,257.446014 121.066193,257.091248 122.777252,256.349091 
M177.001938,269.290680 
	C175.797745,270.163208 174.681152,271.204620 173.375717,271.882050 
	C160.969666,278.319977 149.529190,271.555084 149.527664,257.822968 
	C149.526306,245.667740 149.527359,233.512497 149.527344,221.357269 
	C149.527344,219.617981 149.527344,217.878708 149.527344,216.212372 
	C145.850723,216.212372 142.943359,216.212372 139.900970,216.212372 
	C139.900970,232.487640 139.792007,248.463974 139.951462,264.437622 
	C140.020889,271.392792 143.935516,276.348389 149.726318,279.679260 
	C158.718063,284.851288 168.162018,285.123169 177.463852,280.723328 
	C183.733490,277.757721 188.856247,273.006409 189.032211,265.644440 
	C189.425491,249.191299 189.155167,232.722336 189.155167,216.086456 
	C185.981155,216.086456 183.021317,216.086456 179.677734,216.086456 
	C179.677734,230.723053 179.798187,245.191162 179.579498,259.654144 
	C179.533920,262.668518 178.234161,265.663971 177.001938,269.290680 
M382.922607,222.487656 
	C378.088318,215.024277 377.456879,214.768478 367.771118,216.601974 
	C375.125000,228.375122 382.523773,239.942749 389.570007,251.721283 
	C391.084106,254.252258 391.899292,257.518799 392.037476,260.492950 
	C392.381744,267.902649 392.150848,275.339111 392.150848,282.818665 
	C395.710388,282.818665 398.644867,282.818665 402.011017,282.818665 
	C402.011017,280.183228 402.283783,277.696228 401.965942,275.287140 
	C400.157837,261.582275 403.891022,249.709106 412.385315,238.779465 
	C417.713318,231.923843 421.779907,224.087875 426.530853,216.502777 
	C416.074005,214.890762 416.066833,214.886261 410.988098,222.995499 
	C406.466553,230.215088 401.963257,237.446121 397.435303,244.698730 
	C396.718414,244.196014 396.363281,244.069351 396.205566,243.818527 
	C391.876892,236.934769 387.568359,230.038345 382.922607,222.487656 
z"/>
<path fill="#F8F8F8" opacity="1.000000" stroke="none" 
	d="
M199.037979,215.811584 
	C202.403549,215.301071 204.220062,216.512848 205.941010,219.050613 
	C215.546738,233.215439 225.367889,247.234161 235.981384,262.552704 
	C235.981384,246.226074 235.981384,231.257202 235.981384,216.054749 
	C239.594574,216.054749 242.539276,216.054749 245.716476,216.054749 
	C245.716476,238.242065 245.716476,260.321869 245.716476,282.543549 
	C240.820251,284.085724 237.614105,282.593903 234.710541,278.175049 
	C226.489029,265.662872 217.799362,253.458130 209.279846,241.142181 
	C208.487122,239.996170 207.593124,238.920227 206.034088,236.879852 
	C206.034088,252.806870 206.034088,267.534058 206.034088,282.637146 
	C202.624802,282.637146 199.589676,282.637146 196.052933,282.637146 
	C196.052933,275.866058 196.052933,269.083588 196.052933,262.301086 
	C196.052948,248.138519 196.035370,233.975906 196.075119,219.813446 
	C196.080109,218.031067 195.154694,215.453751 199.037979,215.811584 
z"/>
<path fill="#FBFBFB" opacity="1.000000" stroke="none" 
	d="
M309.692566,246.358536 
	C310.532166,268.938904 296.979340,282.997070 274.827545,283.007965 
	C267.672729,283.011505 260.517883,283.008545 253.025208,283.008545 
	C253.025208,260.610413 253.025208,238.415771 253.025208,216.121567 
	C262.632416,216.121567 272.163757,215.486084 281.577820,216.265823 
	C296.907135,217.535522 306.717072,228.374527 309.692566,246.358536 
M262.301758,270.201752 
	C263.384003,271.189087 264.407501,272.939117 265.558990,273.027832 
	C269.862793,273.359619 274.213013,273.272186 278.537567,273.114899 
	C289.976440,272.698822 298.798920,264.218933 299.967041,252.661270 
	C301.265503,239.813995 294.370483,228.446045 282.896942,226.451065 
	C276.350189,225.312759 269.443420,226.245117 262.300354,226.245117 
	C262.300354,240.663605 262.300354,254.955917 262.301758,270.201752 
z"/>
<path fill="#FAFAFA" opacity="1.000000" stroke="none" 
	d="
M346.221283,282.398499 
	C335.701691,282.514252 325.605316,282.514252 315.283020,282.514252 
	C315.283020,260.528900 315.283020,238.481171 315.283020,216.729248 
	C326.014526,216.729248 336.775635,215.448624 347.099640,217.026978 
	C362.904541,219.443268 372.270355,232.878357 372.183807,249.956589 
	C372.099823,266.527954 362.289551,278.945251 346.221283,282.398499 
M353.934814,268.553741 
	C354.996246,267.500702 356.134918,266.514191 357.107330,265.384521 
	C368.525421,252.119675 361.792175,229.526825 345.078857,226.381607 
	C338.718964,225.184753 331.945160,226.187027 325.192932,226.187027 
	C325.192932,241.725418 325.192932,257.258667 325.192932,273.178955 
	C334.880829,272.506134 344.740753,275.353668 353.934814,268.553741 
z"/>
<path fill="#F9F9F9" opacity="1.000000" stroke="none" 
	d="
M122.452820,256.542786 
	C121.066193,257.091248 120.003998,257.446014 118.327690,258.005890 
	C125.295853,266.343719 131.944229,274.298889 138.838348,282.548096 
	C131.435028,283.867432 125.605751,283.423645 120.977386,276.550354 
	C116.072639,269.266693 109.787949,262.923492 104.327408,255.995010 
	C102.960472,254.260620 102.443199,251.856613 101.166924,248.909393 
	C106.287720,248.909393 110.096153,249.012985 113.896973,248.886963 
	C120.920013,248.654083 125.673851,243.954468 125.782188,237.305206 
	C125.888649,230.772308 121.097336,225.983627 113.992516,225.761566 
	C109.170403,225.610840 104.339775,225.732758 98.906471,225.732758 
	C98.906471,244.741898 98.906471,263.617859 98.906471,282.749207 
	C95.389671,282.749207 92.470230,282.749207 89.265648,282.749207 
	C89.265648,260.676758 89.265648,238.582947 89.265648,216.380936 
	C99.235130,216.380936 109.384537,215.528076 119.315956,216.633591 
	C128.291138,217.632645 134.220673,225.374863 135.153870,234.192047 
	C136.258774,244.631897 132.199112,251.899658 122.452820,256.542786 
z"/>
<path fill="#F9F9F9" opacity="1.000000" stroke="none" 
	d="
M177.257172,268.979401 
	C178.234161,265.663971 179.533920,262.668518 179.579498,259.654144 
	C179.798187,245.191162 179.677734,230.723053 179.677734,216.086456 
	C183.021317,216.086456 185.981155,216.086456 189.155167,216.086456 
	C189.155167,232.722336 189.425491,249.191299 189.032211,265.644440 
	C188.856247,273.006409 183.733490,277.757721 177.463852,280.723328 
	C168.162018,285.123169 158.718063,284.851288 149.726318,279.679260 
	C143.935516,276.348389 140.020889,271.392792 139.951462,264.437622 
	C139.792007,248.463974 139.900970,232.487640 139.900970,216.212372 
	C142.943359,216.212372 145.850723,216.212372 149.527344,216.212372 
	C149.527344,217.878708 149.527344,219.617981 149.527344,221.357269 
	C149.527359,233.512497 149.526306,245.667740 149.527664,257.822968 
	C149.529190,271.555084 160.969666,278.319977 173.375717,271.882050 
	C174.681152,271.204620 175.797745,270.163208 177.257172,268.979401 
z"/>
<path fill="#FAFAFA" opacity="1.000000" stroke="none" 
	d="
M383.089539,222.815857 
	C387.568359,230.038345 391.876892,236.934769 396.205566,243.818527 
	C396.363281,244.069351 396.718414,244.196014 397.435303,244.698730 
	C401.963257,237.446121 406.466553,230.215088 410.988098,222.995499 
	C416.066833,214.886261 416.074005,214.890762 426.530853,216.502777 
	C421.779907,224.087875 417.713318,231.923843 412.385315,238.779465 
	C403.891022,249.709106 400.157837,261.582275 401.965942,275.287140 
	C402.283783,277.696228 402.011017,280.183228 402.011017,282.818665 
	C398.644867,282.818665 395.710388,282.818665 392.150848,282.818665 
	C392.150848,275.339111 392.381744,267.902649 392.037476,260.492950 
	C391.899292,257.518799 391.084106,254.252258 389.570007,251.721283 
	C382.523773,239.942749 375.125000,228.375122 367.771118,216.601974 
	C377.456879,214.768478 378.088318,215.024277 383.089539,222.815857 
z"/>
<path fill="#29292C" opacity="1.000000" stroke="none" 
	d="
M262.301056,269.724976 
	C262.300354,254.955917 262.300354,240.663605 262.300354,226.245117 
	C269.443420,226.245117 276.350189,225.312759 282.896942,226.451065 
	C294.370483,228.446045 301.265503,239.813995 299.967041,252.661270 
	C298.798920,264.218933 289.976440,272.698822 278.537567,273.114899 
	C274.213013,273.272186 269.862793,273.359619 265.558990,273.027832 
	C264.407501,272.939117 263.384003,271.189087 262.301056,269.724976 
z"/>
<path fill="#262629" opacity="1.000000" stroke="none" 
	d="
M353.642578,268.776550 
	C344.740753,275.353668 334.880829,272.506134 325.192932,273.178955 
	C325.192932,257.258667 325.192932,241.725418 325.192932,226.187027 
	C331.945160,226.187027 338.718964,225.184753 345.078857,226.381607 
	C361.792175,229.526825 368.525421,252.119675 357.107330,265.384521 
	C356.134918,266.514191 354.996246,267.500702 353.642578,268.776550 
z"/>
</svg>