<svg width="28" height="27" viewBox="0 0 28 27" fill="none" xmlns="http://www.w3.org/2000/svg">
<circle cx="13.7815" cy="13.368" r="12.6286" fill="#383B45" stroke="white" stroke-width="1.25714"/>
<path d="M9.11979 19.8309V7.59783C9.11979 7.22249 8.81552 6.91821 8.44017 6.91821C8.06483 6.91821 7.76056 7.22249 7.76056 7.59783V19.8309C7.76056 20.2062 8.06483 20.5105 8.44017 20.5105C8.81552 20.5105 9.11979 20.2062 9.11979 19.8309Z" fill="white"/>
<path d="M9.11987 19.1515H7.76064C7.3853 19.1515 7.08102 19.4558 7.08102 19.8311C7.08102 20.2064 7.3853 20.5107 7.76064 20.5107H9.11987C9.49521 20.5107 9.79949 20.2064 9.79949 19.8311C9.79949 19.4558 9.49521 19.1515 9.11987 19.1515Z" fill="white"/>
<path d="M20.4818 15.9783C20.4818 16.0595 20.4449 16.1397 20.3829 16.1921C17.0877 18.9796 13.7868 13.5789 10.4911 15.7139C10.2837 15.8482 9.98184 15.7133 9.98184 15.4662V7.95074C9.98184 7.86953 10.0188 7.78938 10.0808 7.73693C13.376 4.94942 16.6769 10.3501 19.9726 8.2152C20.1799 8.08087 20.4818 8.21577 20.4818 8.46285V15.9783Z" fill="white"/>
</svg>
