<svg width="72" height="72" viewBox="0 0 72 72" fill="none" xmlns="http://www.w3.org/2000/svg">
<g filter="url(#filter0_d_0_468)">
<circle cx="34.0576" cy="34.1372" r="22.1" fill="#04AEF1" stroke="white" stroke-width="2.2"/>
<path d="M35.9075 42.8135H35.6926L34.365 42.7983C34.6275 43.5627 35.0868 44.3214 35.7207 44.9993C35.9623 44.3531 36.0265 43.5995 35.9075 42.8135Z" fill="white"/>
<path d="M32.9329 43.06C32.904 42.967 32.8788 42.874 32.8543 42.7809L29.5738 42.7441C28.9529 42.7441 28.3392 42.6908 27.7392 42.5884C27.939 43.2136 28.2491 43.8403 28.6709 44.4309C30.3065 46.7176 32.9963 47.5953 34.6795 46.3917C34.7552 46.3376 34.8259 46.2792 34.8951 46.2193C33.9677 45.3013 33.2855 44.2102 32.9329 43.0607V43.06Z" fill="white"/>
<path d="M37.6668 38.0884C38.8964 38.0884 40.2659 38.5407 41.4803 39.4429C41.7583 39.6495 42.0147 39.8717 42.2508 40.104C42.2806 40.1333 42.3105 40.1623 42.3397 40.1919C42.3776 40.2305 42.4143 40.2699 42.451 40.3091C42.4749 40.3345 42.4989 40.3596 42.5223 40.3853C42.5544 40.4205 42.5859 40.456 42.617 40.4917C42.6555 40.5357 42.6932 40.5799 42.7303 40.6245C42.7488 40.6468 42.7668 40.6695 42.785 40.6919C42.8212 40.7366 42.8567 40.7815 42.8914 40.8267C42.9127 40.8544 42.9342 40.8818 42.9549 40.9097C42.9859 40.9514 43.0159 40.9936 43.0457 41.0356C43.0611 41.0574 43.0775 41.0783 43.0926 41.1001H43.0907C44.2114 42.7237 44.424 44.6125 43.4617 45.9077C42.1421 47.684 39.1147 47.6697 36.701 45.8765C34.9563 44.5801 34.0092 42.7087 34.117 41.1001C34.1181 41.0834 34.1206 41.0669 34.1219 41.0503C34.1272 40.9844 34.1335 40.9189 34.1424 40.854C34.145 40.8351 34.1483 40.8162 34.1512 40.7974C34.1612 40.7323 34.1736 40.6679 34.1873 40.604C34.1909 40.5874 34.1943 40.5707 34.1981 40.5542C34.2134 40.4878 34.2304 40.4219 34.2498 40.3569C34.2628 40.3135 34.278 40.2708 34.2928 40.228C34.3062 40.1895 34.319 40.1508 34.3338 40.1128C34.3518 40.0666 34.3721 40.0214 34.3924 39.9761C34.402 39.9547 34.4106 39.9328 34.4207 39.9116C34.4404 39.8704 34.4617 39.83 34.4832 39.7896C34.4978 39.7623 34.5127 39.7353 34.5282 39.7085C34.5506 39.6694 34.5732 39.6305 34.5975 39.5923C34.6131 39.5678 34.63 39.5441 34.6463 39.52C34.6708 39.4839 34.6944 39.4468 34.7205 39.4116C35.3761 38.5291 36.4532 38.0884 37.6668 38.0884Z" fill="white"/>
<path d="M37.6684 36.6466C39.2593 36.6466 40.9186 37.2285 42.3414 38.285C43.1556 38.8893 43.8421 39.6148 44.3678 40.4095C45.4928 39.5513 46.2197 38.197 46.2197 36.6718C46.2197 34.0764 44.1162 31.9729 41.5208 31.9729C42.8181 31.9729 43.9928 31.4472 44.8431 30.5969C45.6933 29.7467 46.219 28.572 46.219 27.2746C46.219 24.6793 44.1154 22.5757 41.5201 22.5757H29.5816C28.8547 22.5757 28.1465 22.6586 27.4672 22.8151C27.3165 22.8497 27.1665 22.8887 27.0186 22.9305C26.8708 22.9723 26.7237 23.0185 26.5787 23.0675C26.5059 23.092 26.4338 23.1173 26.3624 23.1439C26.2189 23.1966 26.0776 23.2521 25.9369 23.3112C25.5872 23.4591 25.2475 23.6278 24.9208 23.816C24.7903 23.891 24.6612 23.9696 24.535 24.0504C24.3454 24.1723 24.16 24.3007 23.9798 24.4355C23.8593 24.5256 23.7418 24.618 23.6264 24.7131C23.511 24.8083 23.3978 24.9064 23.2867 25.0074C23.0653 25.2086 22.8533 25.4206 22.6514 25.6427C22.5505 25.7537 22.4524 25.867 22.3572 25.9824C22.262 26.0977 22.169 26.216 22.0795 26.3357C21.9447 26.516 21.8163 26.7013 21.6945 26.891C21.613 27.0179 21.5351 27.1463 21.4601 27.2768C21.2719 27.6035 21.1031 27.9424 20.9553 28.2929C20.8962 28.4328 20.8399 28.5749 20.788 28.7184C20.762 28.7898 20.7361 28.8619 20.7115 28.9347C20.6625 29.0796 20.6171 29.226 20.5745 29.3746C20.532 29.5232 20.4938 29.6724 20.4591 29.8231C20.3019 30.5025 20.2197 31.2106 20.2197 31.9375C20.2197 32.0991 20.2241 32.2599 20.232 32.4193C20.2442 32.6587 20.2652 32.8959 20.2947 33.1303C20.3149 33.2868 20.338 33.4418 20.3654 33.5954C20.4202 33.9026 20.4902 34.2048 20.5745 34.5012C20.6164 34.649 20.6625 34.7961 20.7115 34.9411C20.7361 35.0139 20.7613 35.086 20.788 35.1574C20.8406 35.3009 20.8962 35.4423 20.9553 35.5829C20.9849 35.6528 21.0151 35.7228 21.0469 35.7913C21.1096 35.9298 21.1752 36.0661 21.2437 36.2009C21.313 36.3358 21.3851 36.4685 21.4601 36.599C23.0762 39.4093 26.1086 41.3015 29.583 41.3015L32.6681 41.3362C32.6681 41.1393 32.6796 40.9431 32.7027 40.7499C32.7993 39.9307 33.0892 39.1908 33.5637 38.5511C34.0353 37.9158 34.6555 37.4269 35.4062 37.098C36.0906 36.798 36.8514 36.6459 37.6684 36.6459" fill="white"/>
<path d="M29.508 32.0273C29.3359 32.0273 29.1959 31.8719 29.1959 31.6808V30.69C29.1959 30.4989 29.3359 30.3435 29.508 30.3435C29.6622 30.3415 30.0091 30.3187 30.1829 29.605C30.2757 29.2249 30.2355 28.9863 30.2034 28.8913H30.0858C29.6676 28.8913 29.328 28.5141 29.328 28.0499C29.3288 27.5866 29.6685 27.2095 30.0867 27.2095H30.265C30.7152 27.2095 31.1146 27.4292 31.3892 27.8282C31.7645 28.3726 31.8581 29.1813 31.646 30.0465C31.3116 31.4125 30.4566 32.0273 29.508 32.0273Z" fill="#04AEF1"/>
<path d="M25.0699 32.0273C24.8978 32.0273 24.7578 31.8719 24.7578 31.6808V30.69C24.7578 30.4989 24.8978 30.3435 25.0699 30.3435C25.2241 30.3415 25.571 30.3187 25.7449 29.605C25.8376 29.2249 25.7975 28.9863 25.7654 28.8913H25.6477C25.2296 28.8913 24.8899 28.5141 24.8899 28.0499C24.8908 27.5866 25.2304 27.2095 25.6486 27.2095H25.8269C26.2771 27.2095 26.6765 27.4292 26.9511 27.8282C27.3265 28.3726 27.4201 29.1813 27.2079 30.0465C26.8735 31.4125 26.0185 32.0273 25.0699 32.0273Z" fill="#04AEF1"/>
</g>
<defs>
<filter id="filter0_d_0_468" x="0.85762" y="0.937195" width="70.4" height="70.4" filterUnits="userSpaceOnUse" color-interpolation-filters="sRGB">
<feFlood flood-opacity="0" result="BackgroundImageFix"/>
<feColorMatrix in="SourceAlpha" type="matrix" values="0 0 0 0 0 0 0 0 0 0 0 0 0 0 0 0 0 0 127 0" result="hardAlpha"/>
<feOffset dx="2" dy="2"/>
<feGaussianBlur stdDeviation="6"/>
<feComposite in2="hardAlpha" operator="out"/>
<feColorMatrix type="matrix" values="0 0 0 0 0 0 0 0 0 0 0 0 0 0 0 0 0 0 0.1 0"/>
<feBlend mode="normal" in2="BackgroundImageFix" result="effect1_dropShadow_0_468"/>
<feBlend mode="normal" in="SourceGraphic" in2="effect1_dropShadow_0_468" result="shape"/>
</filter>
</defs>
</svg>
