<svg width="28" height="27" viewBox="0 0 28 27" fill="none" xmlns="http://www.w3.org/2000/svg">
<circle cx="13.7815" cy="13.368" r="12.6286" fill="#383B45" stroke="white" stroke-width="1.25714"/>
<path d="M14.8386 18.3259H14.7158L13.9571 18.3173C14.1071 18.7541 14.3696 19.1876 14.7318 19.5749C14.8699 19.2057 14.9066 18.7751 14.8386 18.3259Z" fill="white"/>
<path d="M13.1388 18.4668C13.1223 18.4136 13.1079 18.3604 13.0939 18.3073L11.2193 18.2863C10.8645 18.2863 10.5138 18.2558 10.171 18.1973C10.2851 18.5545 10.4623 18.9126 10.7034 19.2501C11.638 20.5568 13.1751 21.0583 14.1369 20.3706C14.1801 20.3397 14.2205 20.3063 14.2601 20.2721C13.7301 19.7475 13.3403 19.124 13.1388 18.4672V18.4668Z" fill="white"/>
<path d="M15.844 15.6259C16.5464 15.6259 17.3289 15.884 18.0227 16.3993C18.0533 16.4221 18.0818 16.4482 18.1116 16.4716C18.1705 16.5178 18.2289 16.5637 18.2844 16.6122C18.3086 16.6333 18.3312 16.6561 18.3547 16.6776C18.4082 16.7265 18.461 16.7753 18.511 16.826C18.5438 16.8594 18.5744 16.8945 18.6057 16.9286C18.6487 16.9753 18.6916 17.0213 18.7317 17.0692C18.7562 17.0986 18.7786 17.1293 18.802 17.1591C18.8423 17.2103 18.8822 17.261 18.9192 17.3134C18.9273 17.3248 18.9366 17.336 18.9446 17.3475H18.9417C19.5821 18.2752 19.7051 19.3534 19.1555 20.0936C18.4014 21.1086 16.6715 21.1008 15.2922 20.076C14.3365 19.3659 13.8003 18.3541 13.8118 17.4618C13.8126 17.3963 13.8177 17.3316 13.8245 17.2675C13.826 17.2534 13.8266 17.2394 13.8284 17.2255C13.837 17.1574 13.848 17.0902 13.8635 17.0243C13.8666 17.0114 13.871 16.999 13.8743 16.9862C13.8895 16.9272 13.9079 16.8693 13.929 16.8124C13.9336 16.7997 13.9376 16.7868 13.9426 16.7743C13.9468 16.7638 13.951 16.7534 13.9553 16.743C13.9667 16.716 13.9788 16.6894 13.9915 16.663C14.0021 16.6407 14.013 16.6184 14.0247 16.5966C14.0337 16.5797 14.0434 16.5633 14.053 16.5468C14.0639 16.5278 14.0745 16.5087 14.0862 16.4901C14.1002 16.468 14.115 16.4463 14.1301 16.4247C14.1401 16.4104 14.15 16.3957 14.1604 16.3817C14.535 15.8775 15.1506 15.6259 15.844 15.6259Z" fill="white"/>
<path d="M15.8448 14.802C16.7539 14.802 17.7021 15.1345 18.5151 15.7382C18.9803 16.0836 19.3726 16.4981 19.673 16.9522C20.3159 16.4618 20.7313 15.688 20.7313 14.8164C20.7313 13.3333 19.5292 12.1313 18.0461 12.1313C18.7875 12.1313 19.4588 11.8309 19.9446 11.345C20.4304 10.8592 20.7308 10.1879 20.7308 9.44659C20.7308 7.96351 19.5288 6.76147 18.0457 6.76147H11.2237C10.8084 6.76147 10.4037 6.80886 10.0155 6.89829C9.9294 6.91807 9.84368 6.94032 9.75921 6.96422C9.67473 6.98812 9.59067 7.01449 9.50784 7.04251C9.46622 7.05652 9.42501 7.07095 9.38421 7.08619C9.30221 7.11628 9.22144 7.14801 9.14109 7.1818C8.94123 7.26627 8.74714 7.3627 8.56047 7.47025C8.48588 7.51311 8.41212 7.55803 8.34 7.60418C8.23163 7.67382 8.12572 7.74717 8.0227 7.82423C7.95388 7.87574 7.88671 7.92849 7.82078 7.98288C7.75485 8.03728 7.69015 8.09332 7.62669 8.15101C7.50018 8.26598 7.37903 8.38713 7.26365 8.51405C7.20596 8.57751 7.14992 8.64221 7.09552 8.70814C7.04113 8.77407 6.98797 8.84166 6.93687 8.91006C6.85981 9.01308 6.78646 9.11899 6.71682 9.22736C6.67025 9.29989 6.62575 9.37324 6.58289 9.44783C6.47534 9.6345 6.37891 9.82818 6.29444 10.0284C6.26065 10.1084 6.2285 10.1896 6.19883 10.2716C6.184 10.3124 6.16916 10.3536 6.15515 10.3952C6.12713 10.478 6.10117 10.5617 6.07686 10.6466C6.05255 10.7315 6.03071 10.8168 6.01093 10.9029C5.92109 11.2911 5.87411 11.6957 5.87411 12.1111C5.87411 12.2034 5.87659 12.2953 5.88112 12.3864C5.88813 12.5232 5.90008 12.6588 5.91697 12.7927C5.92851 12.8821 5.9417 12.9707 5.95736 13.0585C5.98867 13.234 6.02865 13.4067 6.07686 13.576C6.10076 13.6605 6.12713 13.7446 6.15515 13.8274C6.16916 13.869 6.18359 13.9102 6.19883 13.951C6.22892 14.033 6.26065 14.1138 6.29444 14.1942C6.31133 14.2341 6.32864 14.2741 6.34677 14.3133C6.38262 14.3924 6.42012 14.4703 6.45927 14.5473C6.49883 14.6244 6.54004 14.7002 6.58289 14.7748C7.50636 16.3807 9.23916 17.462 11.2246 17.462L12.9874 17.4817C12.9874 17.3692 12.994 17.2572 13.0072 17.1467C13.0624 16.6786 13.2281 16.2558 13.4992 15.8903C13.7687 15.5272 14.1231 15.2479 14.5521 15.0599C14.9432 14.8885 15.3779 14.8016 15.8448 14.8016" fill="white"/>
<path d="M11.1817 12.1624C11.0834 12.1624 11.0034 12.0736 11.0034 11.9644V11.3982C11.0034 11.289 11.0834 11.2002 11.1817 11.2002C11.2698 11.1991 11.4681 11.1861 11.5674 10.7782C11.6204 10.561 11.5975 10.4247 11.5791 10.3704H11.5119C11.2729 10.3704 11.0788 10.1549 11.0788 9.8896C11.0793 9.62488 11.2734 9.40936 11.5124 9.40936H11.6143C11.8715 9.40936 12.0998 9.53494 12.2567 9.76289C12.4712 10.074 12.5247 10.5361 12.4034 11.0305C12.2124 11.8111 11.7238 12.1624 11.1817 12.1624Z" fill="#383B45"/>
<path d="M8.64572 12.1624C8.54739 12.1624 8.46741 12.0736 8.46741 11.9644V11.3982C8.46741 11.289 8.54739 11.2002 8.64572 11.2002C8.73385 11.1991 8.93207 11.1861 9.03142 10.7782C9.0844 10.561 9.06147 10.4247 9.04313 10.3704H8.97589C8.73695 10.3704 8.54285 10.1549 8.54285 9.8896C8.54336 9.62488 8.73746 9.40936 8.9764 9.40936H9.07829C9.33556 9.40936 9.56379 9.53494 9.7207 9.76289C9.93518 10.074 9.98868 10.5361 9.86743 11.0305C9.67638 11.8111 9.18777 12.1624 8.64572 12.1624Z" fill="#383B45"/>
</svg>
