<svg width="80" height="80" viewBox="0 0 80 80" fill="none" xmlns="http://www.w3.org/2000/svg">
<g clip-path="url(#clip0_1619_11712)">
<rect width="80" height="80" rx="40" fill="#F7F9FC"/>
<path d="M42.4493 67.9527C42.4493 67.9527 42.4493 67.9294 42.4415 67.9216H33.8307C32.1646 67.9216 30.5218 67.797 28.918 67.5557C29.4785 68.9337 30.2259 70.2962 31.1524 71.6042C35.8238 78.1363 43.4225 80.7289 48.3741 77.6068C45.5791 74.7962 43.5159 71.464 42.4415 67.9527H42.4493Z" fill="#D5D7DF"/>
<path d="M52.5316 68.1318H48.3975C49.1916 69.9225 50.3516 71.6665 51.8465 73.2625C52.4226 71.721 52.6562 69.977 52.5316 68.1318Z" fill="#D5D7DF"/>
<path d="M67.0965 58.7961C63.7877 56.3397 60.0598 55.1116 56.7149 55.1116C53.4133 55.1116 50.4729 56.3108 48.6885 58.7166C47.5831 60.2048 47.0558 61.9748 47.0269 63.8604H51.376V64.0483H67.1976C68.6931 64.0483 70.1308 63.7737 71.4673 63.3041C70.3331 61.6642 68.8737 60.1181 67.0965 58.7961Z" fill="#D5D7DF"/>
<path d="M56.7152 50.004C61.2955 50.004 66.0637 51.6729 70.1383 54.6999C72.4212 56.3977 74.3502 58.435 75.8456 60.6673C78.3886 58.3266 79.9997 54.9817 79.9997 51.2538C79.9997 44.1883 74.2707 38.4593 67.2051 38.4593C74.2707 38.4593 79.9997 32.7302 79.9997 25.6647C79.9997 18.5991 74.2707 12.8701 67.2051 12.8701H34.6949C20.6144 12.8701 9.19971 24.2848 9.19971 38.3653C9.19971 52.4459 20.6144 63.8606 34.6949 63.8606H41.9266C41.9555 60.8407 42.8514 58.0015 44.5853 55.668C47.2583 52.0702 51.6797 50.004 56.708 50.004" fill="#D5D7DF"/>
<path d="M67.5141 58.2343C63.9931 55.6204 60.0262 54.3135 56.4667 54.3135C52.9534 54.3135 49.8244 55.5897 47.9255 58.1497C44.1047 63.2929 46.6724 71.6803 53.6683 76.8772C57.1894 79.4911 61.1563 80.798 64.7157 80.798C68.2752 80.798 71.358 79.5219 73.2569 76.9618C77.0778 71.8187 74.51 63.4312 67.5141 58.2343Z" fill="#D5D7DF"/>
<path d="M21.1561 33.2144C20.7804 33.2144 20.4697 32.9037 20.4697 32.528V30.563C20.4697 30.1873 20.7804 29.8766 21.1561 29.8766C21.4956 29.8766 22.507 29.0025 22.8899 27.5865C23.0922 26.8351 23.0055 26.3583 22.9333 26.1705H22.6732C21.7485 26.1705 21.0043 25.4264 21.0043 24.5016C21.0043 23.5769 21.7485 22.8328 22.6732 22.8328H23.0633C24.0531 22.8328 24.9345 23.2662 25.5413 24.0609C26.3649 25.1374 26.5744 26.7484 26.1048 28.4606C25.3679 31.1698 23.2367 33.2144 21.1488 33.2144H21.1561Z" fill="white"/>
<path d="M32.4119 33.2144C32.0362 33.2144 31.7256 32.9037 31.7256 32.528V30.563C31.7256 30.1873 32.0362 29.8766 32.4119 29.8766C32.7515 29.8766 33.7629 29.0025 34.1458 27.5865C34.3481 26.8351 34.2614 26.3583 34.1891 26.1705H33.9291C33.0043 26.1705 32.2602 25.4264 32.2602 24.5016C32.2602 23.5769 33.0043 22.8328 33.9291 22.8328H34.3192C35.3089 22.8328 36.1903 23.2662 36.7972 24.0609C37.6208 25.1374 37.8303 26.7484 37.3607 28.4606C36.6238 31.1698 34.4926 33.2144 32.4047 33.2144H32.4119Z" fill="white"/>
<path d="M23.5908 41.3563C22.0953 41.3563 21.1128 40.2365 21.3873 38.8566C21.6618 37.4767 23.0923 36.3569 24.5877 36.3569C26.0832 36.3569 27.0657 37.4767 26.7912 38.8566C26.5167 40.2365 25.0862 41.3563 23.5908 41.3563Z" fill="white"/>
</g>
<defs>
<clipPath id="clip0_1619_11712">
<rect width="80" height="80" rx="40" fill="white"/>
</clipPath>
</defs>
</svg>
