<svg width="48" height="49" viewBox="0 0 48 49" fill="none" xmlns="http://www.w3.org/2000/svg">
<rect x="0.6" y="1.32461" width="46.8" height="46.8" rx="11.4" stroke="white" stroke-opacity="0.04" stroke-width="1.2"/>
<path d="M26.3475 13.8611C27.0708 13.1378 28.2436 13.1378 28.967 13.8611L35.082 19.9761C35.8053 20.6995 35.8053 21.8723 35.082 22.5956L20.817 36.8606C20.275 37.4026 19.5782 37.7632 18.8226 37.8925L12.5411 38.9679C11.0297 39.2267 9.71646 37.9134 9.97521 36.402L11.0506 30.1205C11.18 29.3649 11.5405 28.6681 12.0825 28.1261L26.3475 13.8611Z" fill="#F1C8A8"/>
<path d="M30.7616 9.44707C31.4283 8.78039 32.5092 8.78039 33.1759 9.44707L39.4961 15.7672C40.1627 16.4339 40.1628 17.5148 39.4961 18.1815L20.8981 36.7795L12.1636 28.0451L30.7616 9.44707Z" fill="#04AEF1"/>
<path d="M34.6113 10.8831L38.0603 14.332L18.2552 34.1372L14.8062 30.6882L34.6113 10.8831Z" fill="#41C4F8"/>
<path d="M12.1665 39.0244C10.8445 39.2463 9.6977 38.0995 9.91954 36.7774L10.3369 34.29L14.654 38.6071L12.1665 39.0244Z" fill="#383B45"/>
<path d="M30.7616 9.44707C31.4283 8.78039 32.5092 8.78039 33.1759 9.44707L39.4965 15.7677C40.1632 16.4344 40.1632 17.5153 39.4965 18.182L37.2546 20.4238L28.5198 11.6889L30.7616 9.44707Z" fill="#119BD1"/>
</svg>
