<svg width="25" height="25" viewBox="0 0 25 25" fill="none" xmlns="http://www.w3.org/2000/svg">
<path d="M12.3715 7.41909C12.7822 7.00841 13.448 7.00841 13.8587 7.41909L17.3304 10.8909C17.7411 11.3015 17.7411 11.9674 17.3304 12.378L9.23158 20.4769C8.92385 20.7846 8.52824 20.9893 8.09929 21.0628L4.53299 21.6733C3.6749 21.8202 2.92931 21.0746 3.07621 20.2165L3.68677 16.6502C3.7602 16.2213 3.96489 15.8257 4.27262 15.5179L12.3715 7.41909Z" fill="#17171A"/>
<path d="M15.7291 4.0615C16.2219 3.56869 17.021 3.56869 17.5138 4.0615L20.6881 7.23583C21.1809 7.72864 21.1809 8.52765 20.6881 9.02046L20.08 9.6286C19.6693 10.0393 19.0034 10.0393 18.5928 9.6286L15.121 6.15684C14.7103 5.74616 14.7103 5.08032 15.121 4.66964L15.7291 4.0615Z" fill="#17171A"/>
</svg>
