<svg width="48" height="49" viewBox="0 0 48 49" fill="none" xmlns="http://www.w3.org/2000/svg">
<path d="M26.3477 13.8765C27.0711 13.1532 28.2439 13.1532 28.9672 13.8765L35.0822 19.9915C35.8056 20.7149 35.8056 21.8877 35.0822 22.611L20.8173 36.876C20.2752 37.418 19.5784 37.7785 18.8229 37.9079L12.5414 38.9833C11.03 39.242 9.7167 37.9288 9.97546 36.4174L11.0509 30.1358C11.1802 29.3803 11.5407 28.6835 12.0828 28.1415L26.3477 13.8765Z" fill="#F1C8A8"/>
<path d="M30.7616 9.46239C31.4283 8.79571 32.5092 8.79571 33.1759 9.46239L39.4961 15.7826C40.1627 16.4492 40.1628 17.5302 39.4961 18.1969L20.8981 36.7949L12.1636 28.0604L30.7616 9.46239Z" fill="#FF7534"/>
<path d="M34.6113 10.8984L38.0603 14.3474L18.2552 34.1526L14.8062 30.7036L34.6113 10.8984Z" fill="#FF8E5A"/>
<path d="M12.1663 39.0398C10.8443 39.2616 9.69746 38.1148 9.91929 36.7928L10.3367 34.3053L14.6537 38.6224L12.1663 39.0398Z" fill="#383B45"/>
<path d="M30.7616 9.46239C31.4283 8.79571 32.5092 8.79571 33.1759 9.46239L39.4965 15.783C40.1632 16.4497 40.1632 17.5306 39.4965 18.1973L37.2546 20.4391L28.5198 11.7042L30.7616 9.46239Z" fill="#E35E20"/>
</svg>
