<svg width="121" height="121" viewBox="0 0 121 121" fill="none" xmlns="http://www.w3.org/2000/svg">
<g clip-path="url(#clip0_1619_12046)">
<path d="M80.7755 0.736084H40.2155C36.7355 0.736084 33.9255 3.55608 33.9255 7.02608V21.1661C33.9255 24.6461 36.7455 27.4561 40.2155 27.4561H56.4055L59.5655 31.2861C60.0455 31.8761 60.9455 31.8761 61.4355 31.2861L64.5955 27.4561H80.7855C84.2655 27.4561 87.0755 24.6361 87.0755 21.1661V7.02608C87.0755 3.54608 84.2555 0.736084 80.7855 0.736084H80.7755Z" fill="#C5C8D2"/>
<path d="M48.1505 16.2324C49.5312 16.2324 50.6505 15.1131 50.6505 13.7324C50.6505 12.3516 49.5312 11.2324 48.1505 11.2324C46.7698 11.2324 45.6505 12.3516 45.6505 13.7324C45.6505 15.1131 46.7698 16.2324 48.1505 16.2324Z" fill="white"/>
<path d="M60.5005 16.2324C61.8812 16.2324 63.0005 15.1131 63.0005 13.7324C63.0005 12.3516 61.8812 11.2324 60.5005 11.2324C59.1198 11.2324 58.0005 12.3516 58.0005 13.7324C58.0005 15.1131 59.1198 16.2324 60.5005 16.2324Z" fill="white"/>
<path d="M72.8507 16.2324C74.2314 16.2324 75.3507 15.1131 75.3507 13.7324C75.3507 12.3516 74.2314 11.2324 72.8507 11.2324C71.47 11.2324 70.3507 12.3516 70.3507 13.7324C70.3507 15.1131 71.47 16.2324 72.8507 16.2324Z" fill="white"/>
<path d="M80.5263 96.6161C77.2763 96.6161 73.6663 97.8061 70.4563 100.186C64.0863 104.916 61.7463 112.556 65.2263 117.246C66.9563 119.576 69.7964 120.736 73.0064 120.736C76.2164 120.736 79.8664 119.546 83.0764 117.166C89.4464 112.436 91.7863 104.796 88.3063 100.106C86.5763 97.7761 83.7363 96.6161 80.5263 96.6161Z" fill="#C5C8D2"/>
<path d="M103.336 54.646C103.336 45.316 95.7655 37.746 86.4355 37.746H51.3155C32.7155 37.746 17.6455 52.816 17.6455 71.416C17.6455 81.426 22.0155 90.416 28.9555 96.586C31.6055 93.316 35.7655 91.446 40.4955 91.446C44.9755 91.446 49.6355 93.076 53.6155 96.026C56.6955 98.316 59.0255 101.116 60.5355 104.096C62.0455 101.146 64.3555 98.366 67.4255 96.086C71.4055 93.126 76.0655 91.506 80.5455 91.506C85.4755 91.506 89.8055 93.536 92.4355 97.066C93.7755 98.876 94.5855 100.916 94.9155 103.056C99.9555 100.136 103.356 94.686 103.356 88.446C103.356 79.116 95.7855 71.546 86.4555 71.546C95.7855 71.546 103.356 63.976 103.356 54.646H103.336Z" fill="#E7E9F0"/>
<path d="M50.5555 100.136C47.3455 97.756 43.7355 96.566 40.4855 96.566C37.4655 96.566 34.7655 97.616 33.0255 99.686C38.2955 103.106 44.5655 105.096 51.3155 105.096H55.1955C54.0555 103.286 52.4955 101.576 50.5555 100.136Z" fill="#E7E9F0"/>
<path d="M50.5568 100.136C47.3468 97.756 43.7368 96.566 40.4868 96.566C37.2868 96.566 34.4368 97.726 32.7068 100.056C29.2268 104.746 31.5668 112.386 37.9368 117.116C41.1468 119.496 44.7568 120.686 48.0068 120.686C51.2568 120.686 54.0568 119.526 55.7868 117.196C59.2668 112.506 56.9268 104.866 50.5568 100.136Z" fill="#C5C8D2"/>
<path d="M50.076 66.956C49.576 66.956 49.166 66.546 49.166 66.046V63.456C49.166 62.956 49.576 62.546 50.076 62.546C50.526 62.546 51.856 61.396 52.366 59.526C52.636 58.526 52.516 57.906 52.426 57.656H52.086C50.866 57.656 49.886 56.666 49.886 55.456C49.886 54.236 50.876 53.256 52.086 53.256H52.606C53.916 53.256 55.076 53.836 55.876 54.876C56.966 56.306 57.236 58.416 56.626 60.686C55.656 64.266 52.846 66.966 50.086 66.966L50.076 66.956Z" fill="#979BAB"/>
<path d="M64.936 66.956C64.436 66.956 64.026 66.546 64.026 66.046V63.456C64.026 62.956 64.436 62.546 64.936 62.546C65.386 62.546 66.716 61.396 67.226 59.526C67.496 58.526 67.376 57.906 67.286 57.656H66.946C65.726 57.656 64.746 56.666 64.746 55.456C64.746 54.236 65.736 53.256 66.946 53.256H67.466C68.776 53.256 69.936 53.836 70.736 54.876C71.826 56.306 72.096 58.416 71.486 60.686C70.516 64.266 67.706 66.966 64.946 66.966L64.936 66.956Z" fill="#979BAB"/>
<path d="M56.876 75.556C54.906 75.556 53.596 74.076 53.966 72.246C54.336 70.416 56.226 68.936 58.196 68.936C60.166 68.936 61.476 70.416 61.106 72.246C60.746 74.076 58.846 75.556 56.876 75.556Z" fill="#979BAB"/>
</g>
<defs>
<clipPath id="clip0_1619_12046">
<rect width="120" height="120" fill="white" transform="translate(0.5 0.736084)"/>
</clipPath>
</defs>
</svg>
