<svg width="60" height="58" viewBox="0 0 60 58" fill="none" xmlns="http://www.w3.org/2000/svg">
<path d="M51.983 0H8.00424C3.57582 0 0 3.58855 0 8.00424V43.9979C0 48.4263 3.58855 52.0021 8.00424 52.0021H24.789L28.8102 56.8759C29.421 57.6267 30.5663 57.6267 31.1898 56.8759L35.211 52.0021H51.9958C56.4242 52.0021 60 48.4136 60 43.9979V8.00424C60 3.57582 56.4115 0 51.9958 0H51.983Z" fill="#383B45"/>
<path d="M32.3531 15.2048L31.9532 30.801H28.0157L27.6158 15.2048H32.3531ZM27.4313 35.1692C27.4005 33.7542 28.5694 32.6006 30.0152 32.616C31.3841 32.6006 32.5685 33.7542 32.5685 35.1692C32.5685 36.5996 31.3841 37.7532 30.0152 37.7532C28.5694 37.7532 27.4005 36.5996 27.4313 35.1692Z" fill="white"/>
</svg>
