<svg width="25" height="25" viewBox="0 0 25 25" fill="none" xmlns="http://www.w3.org/2000/svg">
<circle cx="15.215" cy="7.04678" r="2.66509" stroke="#17171A" stroke-width="1.8"/>
<path d="M2.85742 6.14688C2.36037 6.14688 1.95742 6.54982 1.95742 7.04688C1.95742 7.54393 2.36037 7.94687 2.85742 7.94687V7.04688V6.14688ZM2.85742 7.04688V7.94687H12.0248V7.04688V6.14688H2.85742V7.04688Z" fill="#17171A"/>
<path d="M21.2573 7.94687C21.7544 7.94687 22.1573 7.54393 22.1573 7.04688C22.1573 6.54982 21.7544 6.14688 21.2573 6.14688V7.04688V7.94687ZM18.4053 7.04688V7.94687H21.2573V7.04688V6.14688H18.4053V7.04688Z" fill="#17171A"/>
<circle cx="3.56509" cy="3.56509" r="2.66509" transform="matrix(-1 0 0 1 12.4648 13.5535)" stroke="#17171A" stroke-width="1.8"/>
<path d="M21.2573 16.2184C21.7544 16.2184 22.1573 16.6214 22.1573 17.1184C22.1573 17.6155 21.7544 18.0184 21.2573 18.0184V17.1184V16.2184ZM21.2573 17.1184V18.0184H12.0899V17.1184V16.2184H21.2573V17.1184Z" fill="#17171A"/>
<path d="M2.8574 18.0184C2.36034 18.0184 1.9574 17.6155 1.9574 17.1184C1.9574 16.6214 2.36034 16.2184 2.8574 16.2184V17.1184V18.0184ZM5.70947 17.1184V18.0184H2.8574V17.1184V16.2184H5.70947V17.1184Z" fill="#17171A"/>
</svg>
