<svg width="25" height="25" viewBox="0 0 25 25" fill="none" xmlns="http://www.w3.org/2000/svg">
<path d="M14.3369 5.69897C14.3369 6.5274 13.6653 7.19897 12.8369 7.19897C12.0085 7.19897 11.3369 6.5274 11.3369 5.69897C11.3369 4.87055 12.0085 4.19897 12.8369 4.19897C13.6653 4.19897 14.3369 4.87055 14.3369 5.69897Z" fill="#0F0F11"/>
<path d="M14.3369 12.5823C14.3369 13.4107 13.6653 14.0823 12.8369 14.0823C12.0085 14.0823 11.3369 13.4107 11.3369 12.5823C11.3369 11.7538 12.0085 11.0823 12.8369 11.0823C13.6653 11.0823 14.3369 11.7538 14.3369 12.5823Z" fill="#0F0F11"/>
<path d="M14.3369 19.4658C14.3369 20.2942 13.6653 20.9658 12.8369 20.9658C12.0085 20.9658 11.3369 20.2942 11.3369 19.4658C11.3369 18.6374 12.0085 17.9658 12.8369 17.9658C13.6653 17.9658 14.3369 18.6374 14.3369 19.4658Z" fill="#0F0F11"/>
</svg>
