<svg width="60" height="60" viewBox="0 0 60 60" fill="none" xmlns="http://www.w3.org/2000/svg">
<rect width="60" height="60" rx="12" fill="#F7F9FC"/>
<rect x="0.6" y="0.6" width="58.8" height="58.8" rx="11.4" stroke="white" stroke-opacity="0.04" stroke-width="1.2"/>
<ellipse cx="29.9998" cy="42.2345" rx="8.29135" ry="5.82336" fill="#E0E3EC"/>
<path d="M44.6554 15.9419H15.3362C12.3839 15.9419 10 18.3343 10 21.2781V33.2738C10 36.2261 12.3924 38.61 15.3362 38.61H26.526L29.2068 41.8592C29.614 42.3597 30.3775 42.3597 30.7932 41.8592L33.474 38.61H44.6638C47.6161 38.61 50 36.2176 50 33.2738V21.2781C50 18.3258 47.6076 15.9419 44.6638 15.9419H44.6554Z" fill="#979BAB"/>
<path d="M21.2195 29.6048C22.3909 29.6048 23.3404 28.6553 23.3404 27.4839C23.3404 26.3126 22.3909 25.363 21.2195 25.363C20.0482 25.363 19.0986 26.3126 19.0986 27.4839C19.0986 28.6553 20.0482 29.6048 21.2195 29.6048Z" fill="white"/>
<path d="M29.9998 29.6048C31.1711 29.6048 32.1207 28.6553 32.1207 27.4839C32.1207 26.3126 31.1711 25.363 29.9998 25.363C28.8285 25.363 27.8789 26.3126 27.8789 27.4839C27.8789 28.6553 28.8285 29.6048 29.9998 29.6048Z" fill="white"/>
<path d="M38.7806 29.6048C39.9519 29.6048 40.9014 28.6553 40.9014 27.4839C40.9014 26.3126 39.9519 25.363 38.7806 25.363C37.6092 25.363 36.6597 26.3126 36.6597 27.4839C36.6597 28.6553 37.6092 29.6048 38.7806 29.6048Z" fill="white"/>
</svg>
