<svg width="52" height="52" viewBox="0 0 52 52" fill="none" xmlns="http://www.w3.org/2000/svg">
<g filter="url(#filter0_d_811_4442)">
<rect x="11.8369" y="12.1372" width="24" height="24" rx="12" fill="#4A4F59"/>
<rect x="10.9369" y="11.2372" width="25.8" height="25.8" rx="12.9" stroke="white" stroke-width="1.8"/>
<path d="M22.9574 28.9851H21.3778C21.0738 28.9851 20.7728 28.963 20.4766 28.9189C20.5798 29.1703 20.7161 29.4194 20.8874 29.6576C21.7451 30.8515 23.1407 31.3288 24.0497 30.7572C23.5356 30.2428 23.157 29.6333 22.9589 28.9905C22.9585 28.9886 22.9578 28.987 22.9574 28.9851Z" fill="#F7F9FC"/>
<path d="M25.7321 25.2499C26.6384 25.2499 27.5816 25.5783 28.3873 26.1743C28.8396 26.5088 29.2233 26.9095 29.5196 27.3496C29.6644 27.2166 29.7941 27.0673 29.9047 26.9045C29.9277 26.8708 29.9494 26.8368 29.9704 26.8024C30.0337 26.6983 30.09 26.5896 30.1377 26.4767C30.1859 26.3638 30.2259 26.2462 30.2569 26.1255C30.309 25.9244 30.3365 25.7133 30.3365 25.4959C30.3365 25.2786 30.309 25.0674 30.2569 24.8663C30.2154 24.7054 30.1583 24.5503 30.0872 24.4037C30.0515 24.3303 30.0127 24.2587 29.9704 24.1895C29.9494 24.1547 29.9273 24.1206 29.9047 24.0874C29.8593 24.0205 29.8108 23.9555 29.7591 23.8932C29.6819 23.8 29.598 23.7122 29.5079 23.631C29.4481 23.5769 29.3856 23.5254 29.3204 23.4771C29.2555 23.4287 29.1879 23.3835 29.1184 23.3413C28.9099 23.2149 28.6812 23.1182 28.4389 23.0559C28.237 23.0041 28.025 22.9766 27.8068 22.9766C28.3745 22.9766 28.8983 22.7906 29.3207 22.4762C29.3856 22.4278 29.4481 22.3764 29.5083 22.3222C29.598 22.241 29.6822 22.1532 29.7595 22.06C29.8112 21.9978 29.8597 21.9332 29.9051 21.8659C29.928 21.8322 29.9498 21.7982 29.9708 21.7638C30.0131 21.6945 30.0519 21.623 30.0876 21.5495C30.1055 21.5128 30.1222 21.4756 30.1381 21.4377C30.2181 21.2494 30.276 21.0491 30.3078 20.8406C30.3268 20.7153 30.3369 20.5873 30.3369 20.4569C30.3369 20.2829 30.3191 20.1131 30.2857 19.9491C30.2604 19.8261 30.2263 19.7063 30.1835 19.5906C30.1552 19.5133 30.123 19.4378 30.0876 19.3644C30.0523 19.2909 30.0131 19.2193 29.9708 19.1501C29.9346 19.0909 29.8954 19.0337 29.8547 18.9776C29.824 18.9355 29.7925 18.8941 29.7591 18.8539C29.6819 18.7606 29.598 18.6729 29.5079 18.5916C29.4481 18.5375 29.3856 18.4861 29.3204 18.4377C28.8983 18.1233 28.3741 17.9373 27.8064 17.9373H21.3782C20.8124 17.9373 20.2688 18.0301 19.7613 18.201C19.7221 18.2142 19.6832 18.2277 19.6448 18.242C19.5788 18.266 19.5136 18.2919 19.4487 18.3186C19.4262 18.3279 19.4037 18.3372 19.3815 18.3468C19.2627 18.3979 19.1458 18.4536 19.0321 18.5135C18.9412 18.5611 18.8515 18.6114 18.7642 18.6643C18.591 18.7692 18.4244 18.884 18.266 19.0086C18.2341 19.0333 18.2027 19.0584 18.1716 19.0844C18.0943 19.1478 18.0194 19.2139 17.946 19.2816C17.8575 19.3636 17.7717 19.4487 17.6893 19.5369C17.5651 19.6695 17.4478 19.8087 17.3387 19.9545C17.3146 19.9866 17.2906 20.0191 17.2673 20.052C17.2203 20.1178 17.1752 20.1843 17.1314 20.2523C16.891 20.6259 16.6988 21.0332 16.5637 21.4656C16.4161 21.9355 16.3369 22.4371 16.3369 22.9573C16.3369 24.3005 16.8665 25.5207 17.729 26.4218C17.7845 26.4798 17.8416 26.5367 17.9002 26.5924C18.0753 26.7587 18.2625 26.9126 18.4601 27.0526C18.8884 27.3558 19.3664 27.5944 19.8793 27.7534C19.9982 27.7901 20.1193 27.823 20.242 27.8508C20.6074 27.9348 20.9879 27.9789 21.3785 27.9789H22.8086C22.8145 27.384 22.9927 26.8248 23.3352 26.3657C23.864 25.6568 24.7377 25.2503 25.7325 25.2503" fill="#F7F9FC"/>
<path d="M28.8181 28.1341C28.667 27.8657 28.4702 27.6062 28.2321 27.3676C28.1642 27.2995 28.0927 27.233 28.0178 27.1684C27.9805 27.1363 27.9421 27.1046 27.9032 27.0732C27.8644 27.0419 27.8244 27.0114 27.7837 26.9812C27.1298 26.4974 26.3924 26.2549 25.7303 26.2549C25.0768 26.2549 24.4967 26.4912 24.1438 26.9646C24.077 27.0539 24.0211 27.1483 23.9749 27.2473C23.9287 27.3463 23.8929 27.4492 23.8669 27.5559C23.8584 27.5915 23.8506 27.6271 23.844 27.6634C23.818 27.8073 23.8094 27.9562 23.8172 28.1086C23.8192 28.1476 23.8223 28.1871 23.8261 28.2265C23.8382 28.3422 23.8595 28.4594 23.8898 28.5769C23.91 28.6554 23.9341 28.7336 23.962 28.8121C24.018 28.9687 24.0898 29.125 24.176 29.2785C24.1977 29.3168 24.2203 29.3551 24.2436 29.393C24.3655 29.5902 24.5123 29.7817 24.6819 29.9623C24.8388 30.1294 25.0147 30.2871 25.21 30.4314C25.2147 30.4349 25.2193 30.438 25.224 30.4415C25.2601 30.4678 25.2962 30.4941 25.3331 30.5188C25.3502 30.5304 25.3677 30.5416 25.3848 30.5528C25.4092 30.5691 25.4333 30.5853 25.4578 30.6008C25.4783 30.6136 25.4989 30.6256 25.5195 30.6383C25.5409 30.6515 25.5622 30.6646 25.584 30.6774C25.6057 30.6901 25.6278 30.7017 25.65 30.7141C25.6705 30.7253 25.6907 30.7373 25.7113 30.7482C25.7342 30.7601 25.7575 30.7717 25.7804 30.7834C25.8002 30.7934 25.82 30.8038 25.8398 30.8135C25.8635 30.8251 25.8872 30.8356 25.9113 30.8464C25.9307 30.8553 25.9501 30.8646 25.9695 30.8731C25.9936 30.8835 26.0177 30.8932 26.0418 30.9032C26.0612 30.911 26.0802 30.9195 26.0996 30.9272C26.1237 30.9369 26.1482 30.9454 26.1722 30.9543C26.1916 30.9613 26.2107 30.969 26.2301 30.9756C26.2542 30.9841 26.2778 30.9914 26.3019 30.9992C26.3213 31.0053 26.3411 31.0123 26.3605 31.0181C26.3842 31.0255 26.4079 31.0316 26.4316 31.0382C26.4514 31.0436 26.4712 31.0498 26.491 31.0548C26.5143 31.061 26.5372 31.0661 26.5605 31.0719C26.5807 31.0769 26.6009 31.0819 26.6211 31.0866C26.6436 31.0916 26.6661 31.0955 26.6887 31.1001C26.7092 31.1044 26.7298 31.1086 26.7504 31.1121C26.7725 31.116 26.7943 31.1191 26.8164 31.1225C26.8374 31.1256 26.8583 31.1295 26.8789 31.1322C26.9003 31.1349 26.9216 31.1372 26.943 31.1395C26.964 31.1419 26.9853 31.1446 27.0063 31.1465C27.0273 31.1484 27.0482 31.1496 27.0688 31.1512C27.0902 31.1527 27.1111 31.1542 27.1325 31.1554C27.1531 31.1566 27.1736 31.1566 27.1938 31.157C27.2148 31.1573 27.2362 31.1585 27.2571 31.1585C27.2785 31.1585 27.2998 31.1577 27.3208 31.1573C27.3402 31.157 27.36 31.157 27.379 31.1562C27.4 31.1554 27.4206 31.1535 27.4416 31.1519C27.461 31.1508 27.4804 31.1496 27.4994 31.1481C27.5196 31.1461 27.5398 31.1434 27.56 31.1411C27.579 31.1388 27.5984 31.1368 27.6175 31.1341C27.6369 31.1314 27.6559 31.1279 27.6753 31.1245C27.6947 31.1214 27.7141 31.1183 27.7332 31.1148C27.7518 31.1113 27.7697 31.1071 27.7879 31.1028C27.8073 31.0986 27.8271 31.0947 27.8462 31.09C27.8636 31.0858 27.8807 31.0804 27.8982 31.0757C27.9176 31.0703 27.9374 31.0653 27.9564 31.0595C27.9731 31.0545 27.9891 31.0487 28.0054 31.0432C28.0248 31.0367 28.0442 31.0305 28.0632 31.0235C28.0791 31.0177 28.0943 31.0111 28.1098 31.005C28.1288 30.9972 28.1483 30.9903 28.1669 30.9821C28.182 30.9756 28.1964 30.9682 28.2112 30.9613C28.2298 30.9527 28.2488 30.9442 28.2667 30.935C28.2811 30.9276 28.2946 30.9195 28.309 30.9121C28.3273 30.9025 28.3455 30.8928 28.3634 30.8824C28.377 30.8742 28.3902 30.8653 28.4034 30.8572C28.4208 30.8464 28.4387 30.8356 28.4554 30.8243C28.469 30.8155 28.4814 30.8054 28.4946 30.7961C28.5109 30.7845 28.5276 30.7729 28.5435 30.7605C28.5567 30.7501 28.5696 30.7389 28.5824 30.7284C28.5971 30.7161 28.6127 30.7041 28.627 30.6913C28.641 30.6789 28.6538 30.6658 28.6674 30.653C28.6802 30.6406 28.6934 30.629 28.7059 30.6163C28.7214 30.6004 28.7358 30.5838 28.7509 30.5675C28.7606 30.5567 28.7707 30.5467 28.78 30.5358C28.8022 30.5103 28.8231 30.4836 28.8437 30.4565C28.8456 30.4542 28.8476 30.4519 28.8491 30.4496C28.8934 30.39 28.9334 30.3281 28.9683 30.2643C29.0914 30.0404 29.159 29.7917 29.1745 29.5303C29.1788 29.4556 29.1792 29.3798 29.1753 29.3033C29.1734 29.265 29.1703 29.2267 29.1664 29.188C29.1543 29.0724 29.133 28.9552 29.1027 28.8376C29.0825 28.7595 29.0584 28.681 29.0305 28.6025C28.9746 28.4458 28.9027 28.2896 28.8165 28.136L28.8181 28.1341Z" fill="#F7F9FC"/>
</g>
<defs>
<filter id="filter0_d_811_4442" x="0.0371094" y="0.337158" width="51.5996" height="51.6001" filterUnits="userSpaceOnUse" color-interpolation-filters="sRGB">
<feFlood flood-opacity="0" result="BackgroundImageFix"/>
<feColorMatrix in="SourceAlpha" type="matrix" values="0 0 0 0 0 0 0 0 0 0 0 0 0 0 0 0 0 0 127 0" result="hardAlpha"/>
<feOffset dx="2" dy="2"/>
<feGaussianBlur stdDeviation="6"/>
<feComposite in2="hardAlpha" operator="out"/>
<feColorMatrix type="matrix" values="0 0 0 0 0 0 0 0 0 0 0 0 0 0 0 0 0 0 0.1 0"/>
<feBlend mode="normal" in2="BackgroundImageFix" result="effect1_dropShadow_811_4442"/>
<feBlend mode="normal" in="SourceGraphic" in2="effect1_dropShadow_811_4442" result="shape"/>
</filter>
</defs>
</svg>
