<svg width="25" height="25" viewBox="0 0 25 25" fill="none" xmlns="http://www.w3.org/2000/svg">
<path d="M21.2082 14.5344C21.3369 14.0542 21.0519 13.5607 20.5718 13.4321C20.0917 13.3034 19.5982 13.5884 19.4695 14.0685L20.3389 14.3014L21.2082 14.5344ZM16.9137 19.1479L16.4039 18.4062L16.9137 19.1479ZM11.1616 20.6088L11.2557 19.7137L11.2557 19.7137L11.1616 20.6088ZM5.83899 17.9839L5.18616 18.6034L5.83899 17.9839ZM3.49632 12.5312L4.39509 12.4841L4.39509 12.4841L3.49632 12.5312ZM5.2562 6.86348L5.97021 7.41136L5.2562 6.86348ZM10.2753 3.69665L10.0882 2.81632L10.0882 2.81632L10.2753 3.69665ZM16.1486 4.54823L15.7191 5.33917L16.1486 4.54823ZM20.3389 14.3014L19.4695 14.0685C18.9967 15.8333 17.9096 17.3714 16.4039 18.4062L16.9137 19.1479L17.4235 19.8896C19.2824 18.6121 20.6244 16.7131 21.2082 14.5344L20.3389 14.3014ZM16.9137 19.1479L16.4039 18.4062C14.8982 19.441 13.0727 19.9047 11.2557 19.7137L11.1616 20.6088L11.0676 21.5038C13.3108 21.7396 15.5646 21.1672 17.4235 19.8896L16.9137 19.1479ZM11.1616 20.6088L11.2557 19.7137C9.43871 19.5227 7.74947 18.6897 6.49183 17.3644L5.83899 17.9839L5.18616 18.6034C6.73881 20.2396 8.82432 21.2681 11.0676 21.5038L11.1616 20.6088ZM5.83899 17.9839L6.49183 17.3644C5.2342 16.0391 4.4907 14.3086 4.39509 12.4841L3.49632 12.5312L2.59755 12.5783C2.7156 14.8308 3.6335 16.9673 5.18616 18.6034L5.83899 17.9839ZM3.49632 12.5312L4.39509 12.4841C4.29947 10.6596 4.858 8.86083 5.97021 7.41136L5.2562 6.86348L4.54218 6.31559C3.16905 8.10508 2.4795 10.3258 2.59755 12.5783L3.49632 12.5312ZM5.2562 6.86348L5.97021 7.41136C7.08243 5.96189 8.67534 4.95684 10.4624 4.57698L10.2753 3.69665L10.0882 2.81632C7.88188 3.28528 5.9153 4.5261 4.54218 6.31559L5.2562 6.86348ZM10.2753 3.69665L10.4624 4.57698C12.2495 4.19713 14.1135 4.46739 15.7191 5.33917L16.1486 4.54823L16.578 3.7573C14.5957 2.68102 12.2945 2.34735 10.0882 2.81632L10.2753 3.69665ZM16.1486 4.54823L15.7191 5.33917C17.3247 6.21094 18.5666 7.62702 19.2213 9.33268L20.0616 9.01015L20.9018 8.68762C20.0935 6.58184 18.5603 4.83358 16.578 3.7573L16.1486 4.54823Z" fill="#17171A"/>
<path d="M20.4449 3.60571V9.02037H15.0303" stroke="#17171A" stroke-width="1.8" stroke-linecap="round" stroke-linejoin="round"/>
</svg>
