<svg width="25" height="24" viewBox="0 0 25 24" fill="none" xmlns="http://www.w3.org/2000/svg">
<path d="M3.7793 7.04834H21.7793" stroke="#272930" stroke-width="2.4" stroke-linecap="round"/>
<path d="M9.7793 2.5H15.7793" stroke="#272930" stroke-width="2.4" stroke-linecap="round" stroke-linejoin="round"/>
<path d="M19.8779 19.3081C19.7038 21.38 17.9717 22.973 15.8926 22.9731H9.86621C7.78692 22.9731 6.054 21.3801 5.87988 19.3081L4.84961 7.04834H20.9082L19.8779 19.3081ZM10.585 11.8354C10.0879 11.8354 9.68457 12.2388 9.68457 12.7358V17.2856C9.68463 17.7827 10.0879 18.186 10.585 18.186C11.082 18.186 11.4853 17.7826 11.4854 17.2856V12.7358C11.4854 12.2388 11.082 11.8355 10.585 11.8354ZM15.1729 11.8354C14.6758 11.8354 14.2725 12.2388 14.2725 12.7358V17.2856C14.2725 17.7827 14.6758 18.186 15.1729 18.186C15.6699 18.186 16.0732 17.7827 16.0732 17.2856V12.7358C16.0732 12.2388 15.6699 11.8354 15.1729 11.8354Z" fill="#272930"/>
</svg>
