<svg width="16" height="16" viewBox="0 0 16 16" fill="none" xmlns="http://www.w3.org/2000/svg">
<path d="M2 4.69882H14" stroke="#727787" stroke-width="1.6" stroke-linecap="round"/>
<path d="M6 1.66666H10" stroke="#727787" stroke-width="1.6" stroke-linecap="round" stroke-linejoin="round"/>
<path d="M12.7329 12.8717C12.6168 14.2531 11.4609 15.3151 10.0747 15.3151H6.05713C4.67111 15.3149 3.51597 14.2529 3.3999 12.8717L2.71338 4.69888H13.4194L12.7329 12.8717ZM6.5376 7.89127C6.20623 7.89127 5.93799 8.1595 5.93799 8.49088V11.5241C5.93819 11.8553 6.20635 12.1247 6.5376 12.1247C6.86862 12.1244 7.137 11.8551 7.13721 11.5241V8.49088C7.13721 8.15967 6.86874 7.89153 6.5376 7.89127ZM9.59619 7.89127C9.26482 7.89127 8.99658 8.1595 8.99658 8.49088V11.5241C8.99675 11.8553 9.26493 12.1247 9.59619 12.1247C9.92723 12.1244 10.1956 11.8551 10.1958 11.5241V8.49088C10.1958 8.15967 9.92734 7.89153 9.59619 7.89127Z" fill="#727787"/>
</svg>
