<svg width="800" height="400" viewBox="0 0 800 400" fill="none" xmlns="http://www.w3.org/2000/svg">
<g clip-path="url(#clip0_1797_14519)">
<rect width="800" height="400" fill="white"/>
<rect width="800" height="400" fill="url(#paint0_linear_1797_14519)"/>
<g opacity="0.3">
<line x1="-221.741" y1="266.069" x2="255.169" y2="-210.841" stroke="white" stroke-width="2"/>
<line opacity="0.9" x1="-187.591" y1="300.218" x2="289.318" y2="-176.692" stroke="white" stroke-width="2"/>
<line opacity="0.7" x1="-153.443" y1="334.367" x2="323.467" y2="-142.543" stroke="white" stroke-width="2"/>
<line opacity="0.5" x1="-119.294" y1="368.516" x2="357.616" y2="-108.394" stroke="white" stroke-width="2"/>
<line opacity="0.3" x1="-85.1441" y1="402.665" x2="391.766" y2="-74.2451" stroke="white" stroke-width="2"/>
<line opacity="0.1" x1="-50.9947" y1="436.814" x2="425.915" y2="-40.0957" stroke="white" stroke-width="2"/>
</g>
<g opacity="0.3">
<line x1="1021.74" y1="133.931" x2="544.831" y2="610.841" stroke="white" stroke-width="2"/>
<line opacity="0.9" x1="987.591" y1="99.7821" x2="510.682" y2="576.692" stroke="white" stroke-width="2"/>
<line opacity="0.7" x1="953.443" y1="65.6336" x2="476.533" y2="542.543" stroke="white" stroke-width="2"/>
<line opacity="0.5" x1="919.294" y1="31.4845" x2="442.384" y2="508.394" stroke="white" stroke-width="2"/>
<line opacity="0.3" x1="885.144" y1="-2.66472" x2="408.234" y2="474.245" stroke="white" stroke-width="2"/>
<line opacity="0.1" x1="850.995" y1="-36.8141" x2="374.085" y2="440.096" stroke="white" stroke-width="2"/>
</g>
<path opacity="0.5" d="M155.036 83.5244L540.127 -8.58301L881.5 269.672L453.666 545.417L310.557 382.951L216.642 402.328L75.0247 353.141L-81.5 314.387L101.71 158.329" stroke="#B0E8FF" stroke-width="14" stroke-linejoin="round"/>
<g filter="url(#filter0_d_1797_14519)">
<circle cx="101.505" cy="155.93" r="46.7436" transform="rotate(18.9083 101.505 155.93)" fill="#04AEF1" stroke="white" stroke-width="3.88234"/>
<path d="M77.2202 173.117L92.0206 129.909C92.4748 128.583 91.7682 127.14 90.4424 126.686C89.1167 126.232 87.6739 126.938 87.2197 128.264L72.4193 171.472C71.9652 172.798 72.6718 174.241 73.9975 174.695C75.3232 175.149 76.7661 174.443 77.2202 173.117Z" fill="white"/>
<path d="M78.0427 170.717L73.2418 169.073C71.916 168.619 70.4732 169.325 70.0191 170.651C69.5649 171.977 70.2715 173.42 71.5973 173.874L76.3982 175.518C77.7239 175.972 79.1667 175.266 79.6209 173.94C80.075 172.614 79.3684 171.171 78.0427 170.717Z" fill="white"/>
<path d="M121.986 173.334C121.904 173.571 121.715 173.768 121.482 173.861C106.27 179.886 101.198 156.24 86.643 160.341C85.9086 160.548 85.1642 159.856 85.4114 159.134L94.6647 132.12C94.7459 131.883 94.935 131.686 95.1682 131.593C110.381 125.568 115.453 149.214 130.007 145.113C130.742 144.906 131.486 145.598 131.239 146.32L121.986 173.334Z" fill="white"/>
</g>
<g filter="url(#filter1_d_1797_14519)">
<circle cx="152.822" cy="84.9846" r="46.7436" transform="rotate(-15.5511 152.822 84.9846)" fill="#04AEF1" stroke="white" stroke-width="3.88234"/>
<path d="M161.587 101.759L161.145 101.882L158.408 102.61C159.384 104.031 160.763 105.328 162.453 106.359C162.58 104.892 162.281 103.307 161.587 101.759Z" fill="white"/>
<path d="M155.614 103.967C155.501 103.793 155.396 103.616 155.293 103.439L148.529 105.239C147.253 105.594 145.961 105.836 144.669 105.969C145.438 107.139 146.433 108.25 147.638 109.223C152.308 112.987 158.338 113.252 161.109 109.816C161.234 109.661 161.346 109.501 161.454 109.338C159.023 107.982 156.997 106.13 155.614 103.969L155.614 103.967Z" fill="white"/>
<path d="M162.499 91.0416C165.027 90.3384 168.1 90.4847 171.112 91.6443C171.639 91.8472 172.144 92.0764 172.629 92.3249C172.672 92.3466 172.715 92.3677 172.757 92.3898C172.87 92.4489 172.981 92.5101 173.091 92.5714C173.164 92.6117 173.236 92.6524 173.308 92.6937C173.384 92.7374 173.459 92.7817 173.533 92.8265C173.641 92.8911 173.747 92.9568 173.853 93.0235C173.913 93.0618 173.973 93.1009 174.032 93.1398C174.133 93.2061 174.234 93.273 174.332 93.3411C174.392 93.3826 174.452 93.4245 174.511 93.4667C174.611 93.5377 174.709 93.6096 174.807 93.6825C174.86 93.7225 174.913 93.762 174.966 93.8025C175.078 93.8891 175.187 93.9775 175.295 94.0665C175.321 94.0878 175.348 94.1083 175.374 94.1298L175.372 94.1303C178.603 96.8262 180.119 100.586 178.882 103.798C177.186 108.204 170.958 109.906 164.971 107.601C160.867 106.021 157.942 102.968 157.054 99.7844C157.05 99.7703 157.047 99.7559 157.043 99.7418C157.038 99.7211 157.033 99.7002 157.027 99.6795C157.001 99.5799 156.976 99.4802 156.954 99.3805C156.947 99.3483 156.939 99.3163 156.932 99.2841C156.906 99.1576 156.882 99.031 156.862 98.9043C156.859 98.8871 156.856 98.87 156.854 98.8529C156.678 97.6964 156.78 96.5392 157.2 95.4468C157.224 95.3861 157.251 95.3272 157.276 95.2676C157.282 95.2537 157.288 95.2399 157.294 95.2261C158.181 93.1561 160.09 91.712 162.499 91.0416Z" fill="white"/>
<path d="M161.678 88.0769C164.948 87.1669 168.692 87.414 172.22 88.7716C174.239 89.548 176.065 90.6464 177.6 91.9791C179.422 89.5718 180.141 86.3725 179.269 83.2376C177.784 77.9032 172.258 74.7828 166.923 76.2673C169.59 75.5253 171.703 73.7729 172.965 71.539C174.226 69.3052 174.634 66.59 173.892 63.9236C172.408 58.5892 166.881 55.4688 161.547 56.9533L137.009 63.7818C135.515 64.1975 134.107 64.773 132.8 65.4832C132.51 65.6406 132.224 65.8064 131.944 65.9769C131.664 66.1474 131.388 66.3265 131.118 66.5101C130.983 66.6022 130.849 66.6953 130.717 66.791C130.453 66.9813 130.194 67.1763 129.939 67.3782C129.304 67.8821 128.703 68.4232 128.139 68.9969C127.914 69.2257 127.693 69.4611 127.48 69.6993C127.16 70.0583 126.852 70.4281 126.559 70.8084C126.363 71.0626 126.174 71.3195 125.992 71.5812C125.809 71.8428 125.632 72.1092 125.462 72.3802C125.122 72.9203 124.807 73.4774 124.519 74.0494C124.375 74.3354 124.238 74.6242 124.109 74.9158C123.979 75.2074 123.856 75.5037 123.74 75.8009C123.566 76.2485 123.408 76.7029 123.266 77.1624C123.172 77.4699 123.085 77.7783 123.005 78.0894C122.805 78.8685 122.652 79.6617 122.549 80.4666C122.507 80.788 122.473 81.1121 122.449 81.4368C122.436 81.5984 122.424 81.7614 122.415 81.9252C122.397 82.2511 122.388 82.578 122.385 82.9077C122.383 83.2373 122.389 83.566 122.405 83.8956C122.47 85.3817 122.706 86.8843 123.122 88.3783C123.214 88.7103 123.315 89.0384 123.423 89.3614C123.585 89.8465 123.763 90.3222 123.958 90.787C124.089 91.0971 124.225 91.4025 124.369 91.7026C124.658 92.3026 124.974 92.8837 125.317 93.4446C125.488 93.7245 125.667 94.0005 125.851 94.2704C125.943 94.406 126.036 94.5398 126.131 94.6713C126.322 94.9361 126.517 95.1949 126.719 95.4501C126.819 95.577 126.922 95.7034 127.026 95.8261C127.234 96.0748 127.447 96.3174 127.665 96.5553C127.884 96.7929 128.109 97.0244 128.337 97.2498C133.266 102.102 140.581 104.256 147.723 102.269L154.083 100.576C153.971 100.171 153.882 99.7613 153.819 99.3508C153.549 97.6118 153.722 95.9252 154.331 94.3391C154.937 92.7636 155.932 91.4039 157.287 90.2986C158.522 89.2906 159.999 88.5427 161.678 88.0754" fill="white"/>
<path d="M142.764 85.0461C142.41 85.1445 142.033 84.9052 141.924 84.5125L141.357 82.4759C141.248 82.0832 141.447 81.6837 141.801 81.5853C142.117 81.493 142.816 81.2477 142.766 79.6814C142.739 78.8471 142.52 78.3797 142.399 78.2027L142.158 78.27C141.298 78.5092 140.384 77.9283 140.119 76.9741C139.856 76.0214 140.338 75.052 141.197 74.8128L141.564 74.7108C142.489 74.4533 143.436 74.6765 144.229 75.3394C145.311 76.2437 145.966 77.8524 146.025 79.752C146.119 82.7509 144.713 84.5035 142.764 85.0461Z" fill="#04AEF1"/>
<path d="M133.642 87.5844C133.288 87.6829 132.912 87.4435 132.803 87.0508L132.236 85.0142C132.127 84.6215 132.325 84.2221 132.679 84.1236C132.995 84.0314 133.695 83.7861 133.644 82.2197C133.617 81.3854 133.398 80.918 133.278 80.741L133.036 80.8084C132.177 81.0475 131.263 80.4666 130.997 79.5124C130.734 78.5597 131.216 77.5903 132.076 77.3511L132.442 77.2491C133.368 76.9916 134.314 77.2148 135.107 77.8777C136.19 78.782 136.845 80.3907 136.903 82.2903C136.998 85.2892 135.592 87.0419 133.642 87.5844Z" fill="#04AEF1"/>
</g>
<g filter="url(#filter2_d_1797_14519)">
<rect x="568.938" y="22.8127" width="60" height="60" rx="30" fill="#FD7FCD"/>
<rect x="567.079" y="20.9535" width="63.7184" height="63.7184" rx="31.8592" stroke="white" stroke-width="3.7184"/>
<path d="M596.74 64.9327H592.791C592.031 64.9327 591.279 64.8776 590.538 64.7673C590.796 65.3958 591.137 66.0185 591.565 66.6141C593.709 69.5988 597.198 70.7919 599.471 69.3629C598.186 68.077 597.239 66.5532 596.744 64.9462C596.743 64.9414 596.741 64.9375 596.74 64.9327Z" fill="#F7F9FC"/>
<path d="M603.676 55.5947C605.942 55.5947 608.3 56.4156 610.314 57.9055C611.445 58.7419 612.404 59.7436 613.145 60.8439C613.507 60.5113 613.831 60.1381 614.108 59.731C614.165 59.6469 614.219 59.5618 614.272 59.4758C614.43 59.2157 614.571 58.944 614.69 58.6616C614.81 58.3793 614.91 58.0854 614.988 57.7837C615.118 57.2809 615.187 56.753 615.187 56.2096C615.187 55.6663 615.118 55.1383 614.988 54.6356C614.884 54.2333 614.741 53.8456 614.564 53.4792C614.474 53.2955 614.377 53.1166 614.272 52.9435C614.219 52.8565 614.164 52.7714 614.108 52.6883C613.994 52.521 613.873 52.3586 613.744 52.2029C613.55 51.9699 613.341 51.7504 613.115 51.5474C612.966 51.412 612.81 51.2834 612.647 51.1625C612.484 51.0417 612.316 50.9286 612.142 50.8232C611.621 50.507 611.049 50.2653 610.443 50.1096C609.938 49.9801 609.408 49.9114 608.863 49.9114C610.282 49.9114 611.591 49.4463 612.648 48.6603C612.81 48.5394 612.966 48.4108 613.116 48.2754C613.341 48.0724 613.551 47.8529 613.744 47.6199C613.874 47.4642 613.995 47.3028 614.109 47.1345C614.166 47.0504 614.22 46.9653 614.273 46.8793C614.378 46.7062 614.475 46.5273 614.565 46.3436C614.609 46.2518 614.651 46.1589 614.691 46.0642C614.891 45.5933 615.036 45.0925 615.115 44.5713C615.163 44.2581 615.188 43.938 615.188 43.6122C615.188 43.1771 615.143 42.7526 615.06 42.3427C614.997 42.0352 614.911 41.7355 614.805 41.4464C614.734 41.253 614.653 41.0645 614.565 40.8808C614.476 40.6971 614.378 40.5182 614.273 40.3451C614.182 40.1972 614.084 40.0541 613.982 39.9139C613.906 39.8085 613.827 39.705 613.744 39.6045C613.55 39.3715 613.341 39.152 613.115 38.9489C612.966 38.8136 612.81 38.685 612.647 38.5641C611.591 37.7781 610.281 37.313 608.862 37.313H592.791C591.377 37.313 590.018 37.545 588.749 37.9724C588.651 38.0053 588.554 38.0391 588.458 38.0749C588.293 38.1348 588.13 38.1996 587.967 38.2663C587.911 38.2895 587.855 38.3127 587.8 38.3369C587.503 38.4645 587.21 38.6038 586.926 38.7536C586.699 38.8726 586.474 38.9983 586.256 39.1307C585.823 39.3927 585.407 39.6799 585.011 39.9912C584.931 40.0531 584.852 40.116 584.775 40.1807C584.582 40.3393 584.394 40.5047 584.211 40.6739C583.989 40.8788 583.775 41.0915 583.569 41.312C583.258 41.6436 582.965 41.9917 582.692 42.3562C582.632 42.4365 582.572 42.5177 582.514 42.5999C582.396 42.7642 582.284 42.9305 582.174 43.1007C581.573 44.0347 581.093 45.0528 580.755 46.1338C580.386 47.3086 580.188 48.5626 580.188 49.8631C580.188 53.221 581.512 56.2715 583.668 58.5243C583.807 58.6694 583.95 58.8115 584.096 58.9507C584.534 59.3665 585.002 59.7513 585.496 60.1013C586.567 60.8594 587.762 61.4559 589.044 61.8533C589.341 61.9452 589.644 62.0273 589.951 62.097C590.864 62.3068 591.816 62.417 592.792 62.417H596.367C596.382 60.9299 596.827 59.5318 597.684 58.3841C599.006 56.6119 601.19 55.5957 603.677 55.5957" fill="#F7F9FC"/>
<path d="M611.392 62.805C611.014 62.134 610.522 61.4852 609.927 60.8886C609.757 60.7185 609.579 60.5522 609.391 60.3907C609.298 60.3104 609.202 60.2312 609.105 60.1528C609.008 60.0745 608.908 59.9981 608.806 59.9227C607.171 58.7132 605.328 58.1069 603.673 58.1069C602.039 58.1069 600.589 58.6977 599.706 59.8812C599.539 60.1045 599.399 60.3404 599.284 60.5879C599.168 60.8355 599.079 61.0927 599.014 61.3595C598.993 61.4485 598.973 61.5374 598.957 61.6283C598.892 61.988 598.87 62.3602 598.89 62.7412C598.895 62.8388 598.902 62.9375 598.912 63.0361C598.942 63.3252 598.996 63.6181 599.071 63.9121C599.122 64.1083 599.182 64.3037 599.252 64.4999C599.392 64.8915 599.571 65.2821 599.787 65.666C599.841 65.7617 599.897 65.8574 599.956 65.9522C600.26 66.4453 600.627 66.9239 601.052 67.3754C601.444 67.7931 601.883 68.1876 602.372 68.5482C602.383 68.5569 602.395 68.5647 602.407 68.5734C602.497 68.6391 602.587 68.7049 602.679 68.7668C602.722 68.7958 602.766 68.8238 602.809 68.8518C602.87 68.8925 602.93 68.9331 602.991 68.9717C603.043 69.0036 603.094 69.0336 603.145 69.0655C603.199 69.0984 603.252 69.1313 603.307 69.1632C603.361 69.1951 603.416 69.2241 603.472 69.255C603.523 69.2831 603.574 69.313 603.625 69.3401C603.682 69.3701 603.74 69.3991 603.798 69.4281C603.847 69.4532 603.897 69.4793 603.946 69.5035C604.006 69.5325 604.065 69.5586 604.125 69.5857C604.173 69.6079 604.222 69.6311 604.271 69.6524C604.331 69.6785 604.391 69.7027 604.451 69.7278C604.5 69.7472 604.547 69.7684 604.596 69.7878C604.656 69.812 604.717 69.8332 604.777 69.8555C604.826 69.8729 604.873 69.8922 604.922 69.9086C604.982 69.9299 605.041 69.9483 605.101 69.9676C605.15 69.9831 605.2 70.0005 605.248 70.015C605.307 70.0334 605.366 70.0488 605.426 70.0653C605.475 70.0788 605.525 70.0943 605.574 70.1068C605.632 70.1223 605.69 70.1349 605.748 70.1494C605.798 70.162 605.849 70.1745 605.899 70.1861C605.956 70.1987 606.012 70.2084 606.068 70.22C606.12 70.2306 606.171 70.2412 606.223 70.2499C606.278 70.2596 606.332 70.2674 606.388 70.2761C606.44 70.2838 606.493 70.2935 606.544 70.3002C606.597 70.307 606.651 70.3128 606.704 70.3186C606.757 70.3244 606.81 70.3312 606.862 70.336C606.915 70.3408 606.967 70.3437 607.019 70.3476C607.072 70.3515 607.124 70.3553 607.178 70.3582C607.229 70.3611 607.281 70.3611 607.331 70.3621C607.384 70.3631 607.437 70.366 607.489 70.366C607.543 70.366 607.596 70.364 607.649 70.3631C607.697 70.3621 607.747 70.3621 607.794 70.3602C607.847 70.3582 607.898 70.3534 607.951 70.3495C607.999 70.3466 608.048 70.3437 608.095 70.3399C608.146 70.335 608.196 70.3283 608.247 70.3225C608.294 70.3167 608.343 70.3118 608.39 70.3051C608.439 70.2983 608.486 70.2896 608.535 70.2809C608.584 70.2732 608.632 70.2654 608.68 70.2567C608.726 70.248 608.771 70.2374 608.816 70.2267C608.865 70.2161 608.915 70.2064 608.962 70.1948C609.006 70.1842 609.048 70.1707 609.092 70.1591C609.141 70.1455 609.19 70.133 609.238 70.1185C609.28 70.1059 609.319 70.0914 609.36 70.0778C609.409 70.0614 609.457 70.0459 609.505 70.0285C609.545 70.014 609.582 69.9976 609.621 69.9821C609.669 69.9628 609.717 69.9454 609.764 69.9251C609.802 69.9086 609.838 69.8903 609.875 69.8729C609.921 69.8516 609.969 69.8303 610.013 69.8071C610.049 69.7887 610.083 69.7684 610.119 69.7501C610.165 69.7259 610.21 69.7017 610.255 69.6756C610.289 69.6553 610.322 69.6331 610.355 69.6128C610.399 69.5857 610.443 69.5586 610.485 69.5306C610.519 69.5084 610.55 69.4832 610.583 69.46C610.624 69.431 610.666 69.402 610.706 69.3711C610.739 69.3449 610.771 69.3169 610.803 69.2908C610.84 69.2599 610.878 69.2299 610.914 69.198C610.949 69.167 610.981 69.1342 611.015 69.1023C611.047 69.0713 611.08 69.0423 611.111 69.0104C611.15 68.9708 611.186 68.9292 611.224 68.8886C611.248 68.8615 611.273 68.8364 611.297 68.8093C611.352 68.7455 611.404 68.6788 611.456 68.6111C611.461 68.6053 611.466 68.5995 611.47 68.5937C611.58 68.4448 611.68 68.2901 611.768 68.1306C612.075 67.5707 612.244 66.949 612.283 66.2954C612.294 66.1088 612.295 65.9193 612.285 65.7279C612.28 65.6321 612.272 65.5364 612.263 65.4397C612.233 65.1506 612.179 64.8577 612.103 64.5637C612.053 64.3684 611.993 64.1722 611.923 63.9759C611.783 63.5843 611.603 63.1937 611.388 62.8098L611.392 62.805Z" fill="#F7F9FC"/>
</g>
<g filter="url(#filter3_d_1797_14519)">
<rect x="628.938" y="307.813" width="60" height="60" rx="30" fill="#2AC47E"/>
<rect x="627.079" y="305.954" width="63.7184" height="63.7184" rx="31.8592" stroke="white" stroke-width="3.7184"/>
<path d="M656.74 349.933H652.791C652.031 349.933 651.279 349.878 650.538 349.767C650.796 350.396 651.137 351.018 651.565 351.614C653.709 354.599 657.198 355.792 659.471 354.363C658.186 353.077 657.239 351.553 656.744 349.946C656.743 349.941 656.741 349.938 656.74 349.933Z" fill="#F7F9FC"/>
<path d="M663.676 340.595C665.942 340.595 668.3 341.416 670.314 342.906C671.445 343.742 672.404 344.744 673.145 345.844C673.507 345.511 673.831 345.138 674.108 344.731C674.165 344.647 674.219 344.562 674.272 344.476C674.43 344.216 674.571 343.944 674.69 343.662C674.81 343.379 674.91 343.085 674.988 342.784C675.118 342.281 675.187 341.753 675.187 341.21C675.187 340.666 675.118 340.138 674.988 339.636C674.884 339.233 674.741 338.846 674.564 338.479C674.474 338.295 674.377 338.117 674.272 337.944C674.219 337.857 674.164 337.771 674.108 337.688C673.994 337.521 673.873 337.359 673.744 337.203C673.55 336.97 673.341 336.75 673.115 336.547C672.966 336.412 672.81 336.283 672.647 336.163C672.484 336.042 672.316 335.929 672.142 335.823C671.621 335.507 671.049 335.265 670.443 335.11C669.938 334.98 669.408 334.911 668.863 334.911C670.282 334.911 671.591 334.446 672.648 333.66C672.81 333.539 672.966 333.411 673.116 333.275C673.341 333.072 673.551 332.853 673.744 332.62C673.874 332.464 673.995 332.303 674.109 332.135C674.166 332.05 674.22 331.965 674.273 331.879C674.378 331.706 674.475 331.527 674.565 331.344C674.609 331.252 674.651 331.159 674.691 331.064C674.891 330.593 675.036 330.092 675.115 329.571C675.163 329.258 675.188 328.938 675.188 328.612C675.188 328.177 675.143 327.753 675.06 327.343C674.997 327.035 674.911 326.735 674.805 326.446C674.734 326.253 674.653 326.064 674.565 325.881C674.476 325.697 674.378 325.518 674.273 325.345C674.182 325.197 674.084 325.054 673.982 324.914C673.906 324.808 673.827 324.705 673.744 324.604C673.55 324.371 673.341 324.152 673.115 323.949C672.966 323.814 672.81 323.685 672.647 323.564C671.591 322.778 670.281 322.313 668.862 322.313H652.791C651.377 322.313 650.018 322.545 648.749 322.972C648.651 323.005 648.554 323.039 648.458 323.075C648.293 323.135 648.13 323.2 647.967 323.266C647.911 323.29 647.855 323.313 647.8 323.337C647.503 323.465 647.21 323.604 646.926 323.754C646.699 323.873 646.474 323.998 646.256 324.131C645.823 324.393 645.407 324.68 645.011 324.991C644.931 325.053 644.852 325.116 644.775 325.181C644.582 325.339 644.394 325.505 644.211 325.674C643.989 325.879 643.775 326.092 643.569 326.312C643.258 326.644 642.965 326.992 642.692 327.356C642.632 327.436 642.572 327.518 642.514 327.6C642.396 327.764 642.284 327.931 642.174 328.101C641.573 329.035 641.093 330.053 640.755 331.134C640.386 332.309 640.188 333.563 640.188 334.863C640.188 338.221 641.512 341.272 643.668 343.524C643.807 343.669 643.95 343.812 644.096 343.951C644.534 344.366 645.002 344.751 645.496 345.101C646.567 345.859 647.762 346.456 649.044 346.853C649.341 346.945 649.644 347.027 649.951 347.097C650.864 347.307 651.816 347.417 652.792 347.417H656.367C656.382 345.93 656.827 344.532 657.684 343.384C659.006 341.612 661.19 340.596 663.677 340.596" fill="#F7F9FC"/>
<path d="M671.392 347.805C671.014 347.134 670.522 346.485 669.927 345.889C669.757 345.718 669.579 345.552 669.391 345.391C669.298 345.31 669.202 345.231 669.105 345.153C669.008 345.075 668.908 344.998 668.806 344.923C667.171 343.713 665.328 343.107 663.673 343.107C662.039 343.107 660.589 343.698 659.706 344.881C659.539 345.105 659.399 345.34 659.284 345.588C659.168 345.835 659.079 346.093 659.014 346.36C658.993 346.448 658.973 346.537 658.957 346.628C658.892 346.988 658.87 347.36 658.89 347.741C658.895 347.839 658.902 347.937 658.912 348.036C658.942 348.325 658.996 348.618 659.071 348.912C659.122 349.108 659.182 349.304 659.252 349.5C659.392 349.892 659.571 350.282 659.787 350.666C659.841 350.762 659.897 350.857 659.956 350.952C660.26 351.445 660.627 351.924 661.052 352.375C661.444 352.793 661.883 353.188 662.372 353.548C662.383 353.557 662.395 353.565 662.407 353.573C662.497 353.639 662.587 353.705 662.679 353.767C662.722 353.796 662.766 353.824 662.809 353.852C662.87 353.892 662.93 353.933 662.991 353.972C663.043 354.004 663.094 354.034 663.145 354.066C663.199 354.098 663.252 354.131 663.307 354.163C663.361 354.195 663.416 354.224 663.472 354.255C663.523 354.283 663.574 354.313 663.625 354.34C663.682 354.37 663.74 354.399 663.798 354.428C663.847 354.453 663.897 354.479 663.946 354.504C664.006 354.533 664.065 354.559 664.125 354.586C664.173 354.608 664.222 354.631 664.271 354.652C664.331 354.679 664.391 354.703 664.451 354.728C664.5 354.747 664.547 354.768 664.596 354.788C664.656 354.812 664.717 354.833 664.777 354.855C664.826 354.873 664.873 354.892 664.922 354.909C664.982 354.93 665.041 354.948 665.101 354.968C665.15 354.983 665.2 355 665.248 355.015C665.307 355.033 665.366 355.049 665.426 355.065C665.475 355.079 665.525 355.094 665.574 355.107C665.632 355.122 665.69 355.135 665.748 355.149C665.798 355.162 665.849 355.175 665.899 355.186C665.956 355.199 666.012 355.208 666.068 355.22C666.12 355.231 666.171 355.241 666.223 355.25C666.278 355.26 666.332 355.267 666.388 355.276C666.44 355.284 666.493 355.293 666.544 355.3C666.597 355.307 666.651 355.313 666.704 355.319C666.757 355.324 666.81 355.331 666.862 355.336C666.915 355.341 666.967 355.344 667.019 355.348C667.072 355.351 667.124 355.355 667.178 355.358C667.229 355.361 667.281 355.361 667.331 355.362C667.384 355.363 667.437 355.366 667.489 355.366C667.543 355.366 667.596 355.364 667.649 355.363C667.697 355.362 667.747 355.362 667.794 355.36C667.847 355.358 667.898 355.353 667.951 355.35C667.999 355.347 668.048 355.344 668.095 355.34C668.146 355.335 668.196 355.328 668.247 355.322C668.294 355.317 668.343 355.312 668.39 355.305C668.439 355.298 668.486 355.29 668.535 355.281C668.584 355.273 668.632 355.265 668.68 355.257C668.726 355.248 668.771 355.237 668.816 355.227C668.865 355.216 668.915 355.206 668.962 355.195C669.006 355.184 669.048 355.171 669.092 355.159C669.141 355.146 669.19 355.133 669.238 355.118C669.28 355.106 669.319 355.091 669.36 355.078C669.409 355.061 669.457 355.046 669.505 355.029C669.545 355.014 669.582 354.998 669.621 354.982C669.669 354.963 669.717 354.945 669.764 354.925C669.802 354.909 669.838 354.89 669.875 354.873C669.921 354.852 669.969 354.83 670.013 354.807C670.049 354.789 670.083 354.768 670.119 354.75C670.165 354.726 670.21 354.702 670.255 354.676C670.289 354.655 670.322 354.633 670.355 354.613C670.399 354.586 670.443 354.559 670.485 354.531C670.519 354.508 670.55 354.483 670.583 354.46C670.624 354.431 670.666 354.402 670.706 354.371C670.739 354.345 670.771 354.317 670.803 354.291C670.84 354.26 670.878 354.23 670.914 354.198C670.949 354.167 670.981 354.134 671.015 354.102C671.047 354.071 671.08 354.042 671.111 354.01C671.15 353.971 671.186 353.929 671.224 353.889C671.248 353.862 671.273 353.836 671.297 353.809C671.352 353.745 671.404 353.679 671.456 353.611C671.461 353.605 671.466 353.599 671.47 353.594C671.58 353.445 671.68 353.29 671.768 353.131C672.075 352.571 672.244 351.949 672.283 351.295C672.294 351.109 672.295 350.919 672.285 350.728C672.28 350.632 672.272 350.536 672.263 350.44C672.233 350.151 672.179 349.858 672.103 349.564C672.053 349.368 671.993 349.172 671.923 348.976C671.783 348.584 671.603 348.194 671.388 347.81L671.392 347.805Z" fill="#F7F9FC"/>
</g>
<g filter="url(#filter4_d_1797_14519)">
<rect x="708.938" y="230.813" width="60" height="60" rx="30" fill="#FF7534"/>
<rect x="707.079" y="228.954" width="63.7184" height="63.7184" rx="31.8592" stroke="white" stroke-width="3.7184"/>
<path d="M736.74 272.933H732.791C732.031 272.933 731.279 272.878 730.538 272.767C730.796 273.396 731.137 274.018 731.565 274.614C733.709 277.599 737.198 278.792 739.471 277.363C738.186 276.077 737.239 274.553 736.744 272.946C736.743 272.941 736.741 272.938 736.74 272.933Z" fill="#F7F9FC"/>
<path d="M743.676 263.595C745.942 263.595 748.3 264.416 750.314 265.906C751.445 266.742 752.404 267.744 753.145 268.844C753.507 268.511 753.831 268.138 754.108 267.731C754.165 267.647 754.219 267.562 754.272 267.476C754.43 267.216 754.571 266.944 754.69 266.662C754.81 266.379 754.91 266.085 754.988 265.784C755.118 265.281 755.187 264.753 755.187 264.21C755.187 263.666 755.118 263.138 754.988 262.636C754.884 262.233 754.741 261.846 754.564 261.479C754.474 261.295 754.377 261.117 754.272 260.944C754.219 260.857 754.164 260.771 754.108 260.688C753.994 260.521 753.873 260.359 753.744 260.203C753.55 259.97 753.341 259.75 753.115 259.547C752.966 259.412 752.81 259.283 752.647 259.163C752.484 259.042 752.316 258.929 752.142 258.823C751.621 258.507 751.049 258.265 750.443 258.11C749.938 257.98 749.408 257.911 748.863 257.911C750.282 257.911 751.591 257.446 752.648 256.66C752.81 256.539 752.966 256.411 753.116 256.275C753.341 256.072 753.551 255.853 753.744 255.62C753.874 255.464 753.995 255.303 754.109 255.135C754.166 255.05 754.22 254.965 754.273 254.879C754.378 254.706 754.475 254.527 754.565 254.344C754.609 254.252 754.651 254.159 754.691 254.064C754.891 253.593 755.036 253.092 755.115 252.571C755.163 252.258 755.188 251.938 755.188 251.612C755.188 251.177 755.143 250.753 755.06 250.343C754.997 250.035 754.911 249.735 754.805 249.446C754.734 249.253 754.653 249.064 754.565 248.881C754.476 248.697 754.378 248.518 754.273 248.345C754.182 248.197 754.084 248.054 753.982 247.914C753.906 247.808 753.827 247.705 753.744 247.604C753.55 247.371 753.341 247.152 753.115 246.949C752.966 246.814 752.81 246.685 752.647 246.564C751.591 245.778 750.281 245.313 748.862 245.313H732.791C731.377 245.313 730.018 245.545 728.749 245.972C728.651 246.005 728.554 246.039 728.458 246.075C728.293 246.135 728.13 246.2 727.967 246.266C727.911 246.29 727.855 246.313 727.8 246.337C727.503 246.465 727.21 246.604 726.926 246.754C726.699 246.873 726.474 246.998 726.256 247.131C725.823 247.393 725.407 247.68 725.011 247.991C724.931 248.053 724.852 248.116 724.775 248.181C724.582 248.339 724.394 248.505 724.211 248.674C723.989 248.879 723.775 249.092 723.569 249.312C723.258 249.644 722.965 249.992 722.692 250.356C722.632 250.436 722.572 250.518 722.514 250.6C722.396 250.764 722.284 250.931 722.174 251.101C721.573 252.035 721.093 253.053 720.755 254.134C720.386 255.309 720.188 256.563 720.188 257.863C720.188 261.221 721.512 264.272 723.668 266.524C723.807 266.669 723.95 266.812 724.096 266.951C724.534 267.366 725.002 267.751 725.496 268.101C726.567 268.859 727.762 269.456 729.044 269.853C729.341 269.945 729.644 270.027 729.951 270.097C730.864 270.307 731.816 270.417 732.792 270.417H736.367C736.382 268.93 736.827 267.532 737.684 266.384C739.006 264.612 741.19 263.596 743.677 263.596" fill="#F7F9FC"/>
<path d="M751.392 270.805C751.014 270.134 750.522 269.485 749.927 268.889C749.757 268.718 749.579 268.552 749.391 268.391C749.298 268.31 749.202 268.231 749.105 268.153C749.008 268.075 748.908 267.998 748.806 267.923C747.171 266.713 745.328 266.107 743.673 266.107C742.039 266.107 740.589 266.698 739.706 267.881C739.539 268.105 739.399 268.34 739.284 268.588C739.168 268.835 739.079 269.093 739.014 269.36C738.993 269.448 738.973 269.537 738.957 269.628C738.892 269.988 738.87 270.36 738.89 270.741C738.895 270.839 738.902 270.937 738.912 271.036C738.942 271.325 738.996 271.618 739.071 271.912C739.122 272.108 739.182 272.304 739.252 272.5C739.392 272.892 739.571 273.282 739.787 273.666C739.841 273.762 739.897 273.857 739.956 273.952C740.26 274.445 740.627 274.924 741.052 275.375C741.444 275.793 741.883 276.188 742.372 276.548C742.383 276.557 742.395 276.565 742.407 276.573C742.497 276.639 742.587 276.705 742.679 276.767C742.722 276.796 742.766 276.824 742.809 276.852C742.87 276.892 742.93 276.933 742.991 276.972C743.043 277.004 743.094 277.034 743.145 277.066C743.199 277.098 743.252 277.131 743.307 277.163C743.361 277.195 743.416 277.224 743.472 277.255C743.523 277.283 743.574 277.313 743.625 277.34C743.682 277.37 743.74 277.399 743.798 277.428C743.847 277.453 743.897 277.479 743.946 277.504C744.006 277.533 744.065 277.559 744.125 277.586C744.173 277.608 744.222 277.631 744.271 277.652C744.331 277.679 744.391 277.703 744.451 277.728C744.5 277.747 744.547 277.768 744.596 277.788C744.656 277.812 744.717 277.833 744.777 277.855C744.826 277.873 744.873 277.892 744.922 277.909C744.982 277.93 745.041 277.948 745.101 277.968C745.15 277.983 745.2 278 745.248 278.015C745.307 278.033 745.366 278.049 745.426 278.065C745.475 278.079 745.525 278.094 745.574 278.107C745.632 278.122 745.69 278.135 745.748 278.149C745.798 278.162 745.849 278.175 745.899 278.186C745.956 278.199 746.012 278.208 746.068 278.22C746.12 278.231 746.171 278.241 746.223 278.25C746.278 278.26 746.332 278.267 746.388 278.276C746.44 278.284 746.493 278.293 746.544 278.3C746.597 278.307 746.651 278.313 746.704 278.319C746.757 278.324 746.81 278.331 746.862 278.336C746.915 278.341 746.967 278.344 747.019 278.348C747.072 278.351 747.124 278.355 747.178 278.358C747.229 278.361 747.281 278.361 747.331 278.362C747.384 278.363 747.437 278.366 747.489 278.366C747.543 278.366 747.596 278.364 747.649 278.363C747.697 278.362 747.747 278.362 747.794 278.36C747.847 278.358 747.898 278.353 747.951 278.35C747.999 278.347 748.048 278.344 748.095 278.34C748.146 278.335 748.196 278.328 748.247 278.322C748.294 278.317 748.343 278.312 748.39 278.305C748.439 278.298 748.486 278.29 748.535 278.281C748.584 278.273 748.632 278.265 748.68 278.257C748.726 278.248 748.771 278.237 748.816 278.227C748.865 278.216 748.915 278.206 748.962 278.195C749.006 278.184 749.048 278.171 749.092 278.159C749.141 278.146 749.19 278.133 749.238 278.118C749.28 278.106 749.319 278.091 749.36 278.078C749.409 278.061 749.457 278.046 749.505 278.029C749.545 278.014 749.582 277.998 749.621 277.982C749.669 277.963 749.717 277.945 749.764 277.925C749.802 277.909 749.838 277.89 749.875 277.873C749.921 277.852 749.969 277.83 750.013 277.807C750.049 277.789 750.083 277.768 750.119 277.75C750.165 277.726 750.21 277.702 750.255 277.676C750.289 277.655 750.322 277.633 750.355 277.613C750.399 277.586 750.443 277.559 750.485 277.531C750.519 277.508 750.55 277.483 750.583 277.46C750.624 277.431 750.666 277.402 750.706 277.371C750.739 277.345 750.771 277.317 750.803 277.291C750.84 277.26 750.878 277.23 750.914 277.198C750.949 277.167 750.981 277.134 751.015 277.102C751.047 277.071 751.08 277.042 751.111 277.01C751.15 276.971 751.186 276.929 751.224 276.889C751.248 276.862 751.273 276.836 751.297 276.809C751.352 276.745 751.404 276.679 751.456 276.611C751.461 276.605 751.466 276.599 751.47 276.594C751.58 276.445 751.68 276.29 751.768 276.131C752.075 275.571 752.244 274.949 752.283 274.295C752.294 274.109 752.295 273.919 752.285 273.728C752.28 273.632 752.272 273.536 752.263 273.44C752.233 273.151 752.179 272.858 752.103 272.564C752.053 272.368 751.993 272.172 751.923 271.976C751.783 271.584 751.603 271.194 751.388 270.81L751.392 270.805Z" fill="#F7F9FC"/>
</g>
<path d="M596.324 176.483C597.302 176.484 598.234 176.915 598.864 177.662C599.492 178.41 599.762 179.402 599.596 180.364L591.931 224.506C591.679 226.021 591.562 227.425 591.562 228.704C591.563 232.279 592.542 234.333 593.92 235.546C595.724 237.055 597.739 237.788 600.088 237.788C602.874 237.788 605.681 236.918 608.556 235.002L608.595 234.976C611.548 233.06 614.242 230.238 616.636 226.391C618.966 222.554 620.654 217.822 621.618 212.124V212.111L627.333 179.23L627.488 178.66C627.958 177.373 629.187 176.484 630.598 176.483H643.142C644.118 176.484 645.045 176.916 645.675 177.662C646.303 178.411 646.573 179.401 646.407 180.364L633.728 253.649C632.575 260.272 630.765 265.901 628.214 270.41L628.22 270.416C625.829 274.799 622.904 278.342 619.402 280.913C616.118 283.478 612.574 285.319 608.777 286.374C605.164 287.378 601.565 287.89 597.996 287.89C591.225 287.89 585.232 286.491 580.165 283.537L580.139 283.524C575.488 280.753 571.595 277.482 568.529 273.701C567.962 273 567.704 272.095 567.816 271.2C567.929 270.304 568.406 269.491 569.131 268.952L578.882 261.709L579.446 261.372C580.037 261.093 580.701 260.994 581.357 261.093C582.231 261.226 583.019 261.702 583.541 262.415C587.494 267.817 592.508 270.39 598.831 270.391C602.554 270.39 605.832 269.046 608.783 266.173C611.575 263.454 613.912 258.421 615.353 250.409L615.826 247.74C614.812 248.638 613.756 249.502 612.651 250.318L612.612 250.344C607.742 253.838 602.131 255.566 595.909 255.566C591.787 255.566 587.915 254.665 584.357 252.832L584.286 252.793C580.694 250.834 577.808 248.044 575.656 244.494C573.436 240.83 572.391 236.587 572.39 231.905V228.426C572.39 228.348 572.391 228.264 572.397 228.186C572.499 226.76 572.701 225.258 572.993 223.69L580.515 179.243C580.786 177.649 582.169 176.483 583.787 176.483H596.324Z" fill="white"/>
<path d="M272.391 176.483C273.37 176.484 274.301 176.919 274.931 177.669C275.558 178.419 275.826 179.413 275.656 180.377L267.596 226.113C267.506 227.004 267.41 227.82 267.318 228.555L267.311 228.614C267.246 229.073 267.208 229.658 267.208 230.376C267.208 233.911 268.209 235.954 269.657 237.179C271.454 238.698 273.525 239.46 276.013 239.46C278.831 239.459 281.656 238.614 284.533 236.777C287.497 234.851 290.193 232.066 292.58 228.316C294.904 224.663 296.581 220.165 297.543 214.748L303.814 179.224L303.97 178.647C304.444 177.366 305.673 176.483 307.08 176.483H319.617C320.594 176.484 321.527 176.915 322.156 177.662C322.785 178.412 323.056 179.407 322.889 180.371L313.695 233.175L313.675 233.253C313.608 233.592 313.537 234.018 313.462 234.529V236.084C313.462 237.999 313.973 238.683 314.323 238.967C315.1 239.477 316.315 239.874 318.224 239.874C319.345 239.875 320.398 240.444 321.01 241.384C321.619 242.324 321.716 243.515 321.262 244.539L316.941 254.29C316.409 255.488 315.219 256.259 313.909 256.26C308.394 256.26 303.63 254.934 300.128 251.796C300.099 251.77 300.071 251.738 300.043 251.711C298.251 249.983 297.004 247.849 296.214 245.414C289.677 253.12 281.553 257.237 271.834 257.238C267.601 257.238 263.625 256.276 259.971 254.342L259.932 254.323C256.366 252.377 253.479 249.656 251.321 246.204L251.302 246.165C249.081 242.502 248.03 238.259 248.03 233.577C248.03 232.286 248.08 230.992 248.179 229.702C248.277 228.336 248.426 226.926 248.619 225.478L248.639 225.355L256.582 179.237L256.731 178.66C257.201 177.372 258.435 176.484 259.847 176.483H272.391Z" fill="white"/>
<path fill-rule="evenodd" clip-rule="evenodd" d="M488.506 145.909C489.209 146.066 489.849 146.455 490.32 147.016C490.949 147.768 491.216 148.76 491.046 149.725L476.28 233.181L476.267 233.253C476.199 233.592 476.129 234.018 476.053 234.529V236.084C476.054 237.996 476.559 238.682 476.909 238.967C477.686 239.478 478.904 239.874 480.815 239.874C481.937 239.875 482.983 240.444 483.595 241.384C484.205 242.324 484.301 243.514 483.848 244.539L479.526 254.29C478.994 255.487 477.804 256.259 476.494 256.26C470.981 256.259 466.221 254.932 462.719 251.796C462.69 251.77 462.657 251.739 462.629 251.711C460.981 250.123 459.807 248.178 459.013 245.971C457.173 248.072 455.144 250.016 452.923 251.783L452.891 251.809C448.197 255.435 442.734 257.238 436.648 257.238C431.397 257.238 426.448 255.865 421.863 253.156L421.817 253.124C417.218 250.302 413.536 246.389 410.77 241.475L410.732 241.403C408.016 236.285 406.722 230.341 406.721 223.69C406.721 216.211 407.835 209.429 410.142 203.41C412.402 197.422 415.441 192.27 419.284 188.022L419.31 187.99L420.781 186.474C424.257 183.03 428.045 180.307 432.151 178.343C436.921 176.013 441.82 174.812 446.82 174.812C452.306 174.812 457.211 176.163 461.372 179.01C463.034 180.121 464.538 181.356 465.901 182.697L471.978 148.565L472.134 147.995C472.608 146.714 473.837 145.831 475.243 145.831H487.78L488.506 145.909ZM447.934 192.312C444.409 192.312 440.971 193.411 437.561 195.765L437.542 195.778C434.291 197.999 431.523 201.277 429.313 205.781C427.267 210.05 426.171 215.378 426.171 221.875C426.171 226.027 426.891 229.329 428.167 231.905C429.592 234.498 431.332 236.337 433.343 237.561C435.561 238.854 437.763 239.459 439.991 239.46C442.769 239.459 445.456 238.592 448.109 236.719L448.148 236.693C450.928 234.786 453.398 232.066 455.515 228.426L455.528 228.406C457.703 224.724 459.255 220.334 460.128 215.189L460.134 215.176L462.447 201.92C460.875 198.938 458.896 196.689 456.525 195.085L456.467 195.052C453.86 193.212 451.046 192.312 447.934 192.312Z" fill="white"/>
<path fill-rule="evenodd" clip-rule="evenodd" d="M570.784 145.909C571.486 146.066 572.126 146.455 572.598 147.016C573.226 147.767 573.494 148.76 573.323 149.725L558.558 233.181L558.545 233.253C558.478 233.585 558.405 234 558.331 234.497V236.084C558.331 237.996 558.836 238.682 559.186 238.967C559.963 239.478 561.181 239.874 563.093 239.874C564.214 239.875 565.261 240.444 565.872 241.384C566.483 242.324 566.579 243.514 566.125 244.539L561.804 254.29C561.271 255.487 560.082 256.259 558.771 256.26C553.258 256.26 548.499 254.932 544.997 251.796C544.968 251.77 544.934 251.739 544.906 251.711C543.257 250.121 542.085 248.174 541.291 245.965C539.449 248.067 537.423 250.015 535.201 251.783L535.168 251.809C530.475 255.435 525.012 257.238 518.925 257.238C513.675 257.238 508.725 255.865 504.14 253.156L504.095 253.124C499.495 250.302 495.813 246.389 493.048 241.475L493.009 241.403C490.293 236.285 488.999 230.341 488.998 223.69C488.998 216.211 490.113 209.429 492.419 203.41C494.679 197.422 497.712 192.27 501.555 188.022L501.587 187.99C505.458 183.822 509.737 180.587 514.429 178.343C519.199 176.013 524.098 174.812 529.097 174.812C534.583 174.812 539.489 176.163 543.649 179.01C545.312 180.121 546.815 181.356 548.178 182.697L554.255 148.565L554.411 147.995C554.885 146.714 556.114 145.831 557.521 145.831H570.058L570.784 145.909ZM530.212 192.312C526.685 192.312 523.243 193.41 519.832 195.765L519.819 195.778C516.568 197.999 513.801 201.277 511.591 205.781C509.545 210.05 508.449 215.378 508.449 221.875C508.449 226.027 509.168 229.329 510.444 231.905C511.869 234.498 513.61 236.337 515.621 237.561C517.838 238.854 520.04 239.459 522.268 239.46C525.047 239.459 527.733 238.592 530.387 236.719L530.426 236.693C533.206 234.786 535.676 232.066 537.792 228.426L537.805 228.406C539.981 224.724 541.533 220.334 542.405 215.189V215.176L544.725 201.92C543.152 198.938 541.173 196.689 538.803 195.085L538.745 195.052C536.138 193.212 533.323 192.312 530.212 192.312Z" fill="white"/>
<path fill-rule="evenodd" clip-rule="evenodd" d="M206.521 150.288C213.909 150.289 220.361 151.452 225.744 153.936C231.039 156.38 235.231 159.774 238.132 164.179H238.119C240.991 168.445 242.441 173.217 242.441 178.407C242.44 187.613 239.464 195.048 233.104 200.093C229.028 203.326 224.126 205.705 218.487 207.336C219.447 208.144 220.332 209.003 221.124 209.928L222.79 211.943C224.363 213.996 225.666 216.16 226.683 218.429C227.934 221.218 228.955 223.983 229.742 226.715L230.979 230.298C231.4 231.429 231.83 232.503 232.268 233.512C232.979 235.145 233.932 236.371 235.08 237.289C236.108 237.963 237.764 238.481 240.374 238.481C241.487 238.482 242.526 239.043 243.14 239.971C243.752 240.9 243.862 242.077 243.425 243.101L238.547 254.523C238.025 255.743 236.828 256.537 235.501 256.538C231.019 256.538 227.041 255.676 223.839 253.662C220.913 251.819 218.51 249.422 216.667 246.496C216.642 246.457 216.618 246.412 216.596 246.373C215.024 243.623 213.611 240.641 212.352 237.445C212.338 237.409 212.32 237.365 212.306 237.328C211.215 234.236 210.035 231.186 208.762 228.186L208.743 228.154C207.56 225.281 206.053 222.73 204.227 220.489L204.188 220.444C202.515 218.313 200.217 216.528 197.191 215.137L197.158 215.124C194.938 214.076 192.042 213.389 188.379 213.161L181.363 252.826C181.081 254.408 179.704 255.565 178.097 255.566H164.86C163.881 255.566 162.951 255.13 162.321 254.381C161.691 253.63 161.426 252.637 161.595 251.673L178.589 155.536C178.832 154.165 179.907 153.091 181.278 152.848C185.502 152.097 189.459 151.486 193.141 151.014C197.028 150.528 201.501 150.288 206.521 150.288ZM205.685 167.931C203.357 167.931 201.229 168.015 199.303 168.19L199.309 168.196C198.266 168.296 197.255 168.424 196.277 168.579L191.528 195.292H199.135C206.888 195.292 212.655 193.702 216.751 190.867L216.777 190.847C220.843 188.085 222.704 184.579 222.705 180.079C222.705 176.56 221.371 173.789 218.526 171.527L218.494 171.501C215.757 169.269 211.633 167.931 205.685 167.931Z" fill="white"/>
<path d="M377.734 174.812C384.774 174.812 390.738 177.011 395.266 181.634L396.076 182.483C399.988 186.785 401.946 192.036 401.946 198.052C401.946 200.613 401.643 203.731 401.071 207.349L401.065 207.401L393.121 252.819C392.843 254.404 391.465 255.565 389.856 255.566H377.313C376.334 255.566 375.403 255.13 374.773 254.381C374.143 253.63 373.878 252.637 374.047 251.673L381.712 208.341L381.731 208.243C382.193 206.029 382.434 204.559 382.509 203.741C382.594 202.712 382.638 201.787 382.638 200.974C382.638 198.047 381.794 196.075 380.403 194.683L380.351 194.631C379.037 193.257 377.217 192.454 374.527 192.454C372.104 192.454 369.189 193.354 365.715 195.558C362.435 197.638 359.226 200.991 356.152 205.82C353.292 210.368 351.132 216.382 349.79 223.988L344.775 252.819C344.497 254.405 343.119 255.565 341.509 255.566H328.966C327.988 255.566 327.056 255.129 326.426 254.381C325.798 253.632 325.534 252.642 325.701 251.679L338.38 179.23L338.536 178.654C339.008 177.37 340.236 176.484 341.645 176.483H353.768C354.751 176.484 355.684 176.92 356.314 177.675C356.942 178.431 357.21 179.43 357.033 180.397L356.457 183.532C357.689 182.413 358.995 181.372 360.376 180.416L360.402 180.397C365.815 176.72 371.613 174.812 377.734 174.812Z" fill="white"/>
<path d="M596.324 176.483C597.302 176.484 598.234 176.915 598.864 177.662C599.492 178.41 599.762 179.402 599.596 180.364L591.931 224.506C591.679 226.021 591.562 227.425 591.562 228.704C591.563 232.279 592.542 234.333 593.92 235.546C595.724 237.055 597.739 237.788 600.088 237.788C602.874 237.788 605.681 236.918 608.556 235.002L608.595 234.976C611.548 233.06 614.242 230.238 616.636 226.391C618.966 222.554 620.654 217.822 621.618 212.124V212.111L627.333 179.23L627.488 178.66C627.958 177.373 629.187 176.484 630.598 176.483H643.142C644.118 176.484 645.045 176.916 645.675 177.662C646.303 178.411 646.573 179.401 646.407 180.364L633.728 253.649C632.575 260.272 630.765 265.901 628.214 270.41L628.22 270.416C625.829 274.799 622.904 278.342 619.402 280.913C616.118 283.478 612.574 285.319 608.777 286.374C605.164 287.378 601.565 287.89 597.996 287.89C591.225 287.89 585.232 286.491 580.165 283.537L580.139 283.524C575.488 280.753 571.595 277.482 568.529 273.701C567.962 273 567.704 272.095 567.816 271.2C567.929 270.304 568.406 269.491 569.131 268.952L578.882 261.709L579.446 261.372C580.037 261.093 580.701 260.994 581.357 261.093C582.231 261.226 583.019 261.702 583.541 262.415C587.494 267.817 592.508 270.39 598.831 270.391C602.554 270.39 605.832 269.046 608.783 266.173C611.575 263.454 613.912 258.421 615.353 250.409L615.826 247.74C614.812 248.638 613.756 249.502 612.651 250.318L612.612 250.344C607.742 253.838 602.131 255.566 595.909 255.566C591.787 255.566 587.915 254.665 584.357 252.832L584.286 252.793C580.694 250.834 577.808 248.044 575.656 244.494C573.436 240.83 572.391 236.587 572.39 231.905V228.426C572.39 228.348 572.391 228.264 572.397 228.186C572.499 226.76 572.701 225.258 572.993 223.69L580.515 179.243C580.786 177.649 582.169 176.483 583.787 176.483H596.324Z" stroke="white" stroke-linejoin="round"/>
<path d="M272.391 176.483C273.37 176.484 274.301 176.919 274.931 177.669C275.558 178.419 275.826 179.413 275.656 180.377L267.596 226.113C267.506 227.004 267.41 227.82 267.318 228.555L267.311 228.614C267.246 229.073 267.208 229.658 267.208 230.376C267.208 233.911 268.209 235.954 269.657 237.179C271.454 238.698 273.525 239.46 276.013 239.46C278.831 239.459 281.656 238.614 284.533 236.777C287.497 234.851 290.193 232.066 292.58 228.316C294.904 224.663 296.581 220.165 297.543 214.748L303.814 179.224L303.97 178.647C304.444 177.366 305.673 176.483 307.08 176.483H319.617C320.594 176.484 321.527 176.915 322.156 177.662C322.785 178.412 323.056 179.407 322.889 180.371L313.695 233.175L313.675 233.253C313.608 233.592 313.537 234.018 313.462 234.529V236.084C313.462 237.999 313.973 238.683 314.323 238.967C315.1 239.477 316.315 239.874 318.224 239.874C319.345 239.875 320.398 240.444 321.01 241.384C321.619 242.324 321.716 243.515 321.262 244.539L316.941 254.29C316.409 255.488 315.219 256.259 313.909 256.26C308.394 256.26 303.63 254.934 300.128 251.796C300.099 251.77 300.071 251.738 300.043 251.711C298.251 249.983 297.004 247.849 296.214 245.414C289.677 253.12 281.553 257.237 271.834 257.238C267.601 257.238 263.625 256.276 259.971 254.342L259.932 254.323C256.366 252.377 253.479 249.656 251.321 246.204L251.302 246.165C249.081 242.502 248.03 238.259 248.03 233.577C248.03 232.286 248.08 230.992 248.179 229.702C248.277 228.336 248.426 226.926 248.619 225.478L248.639 225.355L256.582 179.237L256.731 178.66C257.201 177.372 258.435 176.484 259.847 176.483H272.391Z" stroke="white" stroke-linejoin="round"/>
<path fill-rule="evenodd" clip-rule="evenodd" d="M488.506 145.909C489.209 146.066 489.849 146.455 490.32 147.016C490.949 147.768 491.216 148.76 491.046 149.725L476.28 233.181L476.267 233.253C476.199 233.592 476.129 234.018 476.053 234.529V236.084C476.054 237.996 476.559 238.682 476.909 238.967C477.686 239.478 478.904 239.874 480.815 239.874C481.937 239.875 482.983 240.444 483.595 241.384C484.205 242.324 484.301 243.514 483.848 244.539L479.526 254.29C478.994 255.487 477.804 256.259 476.494 256.26C470.981 256.259 466.221 254.932 462.719 251.796C462.69 251.77 462.657 251.739 462.629 251.711C460.981 250.123 459.807 248.178 459.013 245.971C457.173 248.072 455.144 250.016 452.923 251.783L452.891 251.809C448.197 255.435 442.734 257.238 436.648 257.238C431.397 257.238 426.448 255.865 421.863 253.156L421.817 253.124C417.218 250.302 413.536 246.389 410.77 241.475L410.732 241.403C408.016 236.285 406.722 230.341 406.721 223.69C406.721 216.211 407.835 209.429 410.142 203.41C412.402 197.422 415.441 192.27 419.284 188.022L419.31 187.99L420.781 186.474C424.257 183.03 428.045 180.307 432.151 178.343C436.921 176.013 441.82 174.812 446.82 174.812C452.306 174.812 457.211 176.163 461.372 179.01C463.034 180.121 464.538 181.356 465.901 182.697L471.978 148.565L472.134 147.995C472.608 146.714 473.837 145.831 475.243 145.831H487.78L488.506 145.909ZM447.934 192.312C444.409 192.312 440.971 193.411 437.561 195.765L437.542 195.778C434.291 197.999 431.523 201.277 429.313 205.781C427.267 210.05 426.171 215.378 426.171 221.875C426.171 226.027 426.891 229.329 428.167 231.905C429.592 234.498 431.332 236.337 433.343 237.561C435.561 238.854 437.763 239.459 439.991 239.46C442.769 239.459 445.456 238.592 448.109 236.719L448.148 236.693C450.928 234.786 453.398 232.066 455.515 228.426L455.528 228.406C457.703 224.724 459.255 220.334 460.128 215.189L460.134 215.176L462.447 201.92C460.875 198.938 458.896 196.689 456.525 195.085L456.467 195.052C453.86 193.212 451.046 192.312 447.934 192.312Z" stroke="white" stroke-linejoin="round"/>
<path fill-rule="evenodd" clip-rule="evenodd" d="M570.784 145.909C571.486 146.066 572.126 146.455 572.598 147.016C573.226 147.767 573.494 148.76 573.323 149.725L558.558 233.181L558.545 233.253C558.478 233.585 558.405 234 558.331 234.497V236.084C558.331 237.996 558.836 238.682 559.186 238.967C559.963 239.478 561.181 239.874 563.093 239.874C564.214 239.875 565.261 240.444 565.872 241.384C566.483 242.324 566.579 243.514 566.125 244.539L561.804 254.29C561.271 255.487 560.082 256.259 558.771 256.26C553.258 256.26 548.499 254.932 544.997 251.796C544.968 251.77 544.934 251.739 544.906 251.711C543.257 250.121 542.085 248.174 541.291 245.965C539.449 248.067 537.423 250.015 535.201 251.783L535.168 251.809C530.475 255.435 525.012 257.238 518.925 257.238C513.675 257.238 508.725 255.865 504.14 253.156L504.095 253.124C499.495 250.302 495.813 246.389 493.048 241.475L493.009 241.403C490.293 236.285 488.999 230.341 488.998 223.69C488.998 216.211 490.113 209.429 492.419 203.41C494.679 197.422 497.712 192.27 501.555 188.022L501.587 187.99C505.458 183.822 509.737 180.587 514.429 178.343C519.199 176.013 524.098 174.812 529.097 174.812C534.583 174.812 539.489 176.163 543.649 179.01C545.312 180.121 546.815 181.356 548.178 182.697L554.255 148.565L554.411 147.995C554.885 146.714 556.114 145.831 557.521 145.831H570.058L570.784 145.909ZM530.212 192.312C526.685 192.312 523.243 193.41 519.832 195.765L519.819 195.778C516.568 197.999 513.801 201.277 511.591 205.781C509.545 210.05 508.449 215.378 508.449 221.875C508.449 226.027 509.168 229.329 510.444 231.905C511.869 234.498 513.61 236.337 515.621 237.561C517.838 238.854 520.04 239.459 522.268 239.46C525.047 239.459 527.733 238.592 530.387 236.719L530.426 236.693C533.206 234.786 535.676 232.066 537.792 228.426L537.805 228.406C539.981 224.724 541.533 220.334 542.405 215.189V215.176L544.725 201.92C543.152 198.938 541.173 196.689 538.803 195.085L538.745 195.052C536.138 193.212 533.323 192.312 530.212 192.312Z" stroke="white" stroke-linejoin="round"/>
<path fill-rule="evenodd" clip-rule="evenodd" d="M206.521 150.288C213.909 150.289 220.361 151.452 225.744 153.936C231.039 156.38 235.231 159.774 238.132 164.179H238.119C240.991 168.445 242.441 173.217 242.441 178.407C242.44 187.613 239.464 195.048 233.104 200.093C229.028 203.326 224.126 205.705 218.487 207.336C219.447 208.144 220.332 209.003 221.124 209.928L222.79 211.943C224.363 213.996 225.666 216.16 226.683 218.429C227.934 221.218 228.955 223.983 229.742 226.715L230.979 230.298C231.4 231.429 231.83 232.503 232.268 233.512C232.979 235.145 233.932 236.371 235.08 237.289C236.108 237.963 237.764 238.481 240.374 238.481C241.487 238.482 242.526 239.043 243.14 239.971C243.752 240.9 243.862 242.077 243.425 243.101L238.547 254.523C238.025 255.743 236.828 256.537 235.501 256.538C231.019 256.538 227.041 255.676 223.839 253.662C220.913 251.819 218.51 249.422 216.667 246.496C216.642 246.457 216.618 246.412 216.596 246.373C215.024 243.623 213.611 240.641 212.352 237.445C212.338 237.409 212.32 237.365 212.306 237.328C211.215 234.236 210.035 231.186 208.762 228.186L208.743 228.154C207.56 225.281 206.053 222.73 204.227 220.489L204.188 220.444C202.515 218.313 200.217 216.528 197.191 215.137L197.158 215.124C194.938 214.076 192.042 213.389 188.379 213.161L181.363 252.826C181.081 254.408 179.704 255.565 178.097 255.566H164.86C163.881 255.566 162.951 255.13 162.321 254.381C161.691 253.63 161.426 252.637 161.595 251.673L178.589 155.536C178.832 154.165 179.907 153.091 181.278 152.848C185.502 152.097 189.459 151.486 193.141 151.014C197.028 150.528 201.501 150.288 206.521 150.288ZM205.685 167.931C203.357 167.931 201.229 168.015 199.303 168.19L199.309 168.196C198.266 168.296 197.255 168.424 196.277 168.579L191.528 195.292H199.135C206.888 195.292 212.655 193.702 216.751 190.867L216.777 190.847C220.843 188.085 222.704 184.579 222.705 180.079C222.705 176.56 221.371 173.789 218.526 171.527L218.494 171.501C215.757 169.269 211.633 167.931 205.685 167.931Z" stroke="white" stroke-linejoin="round"/>
<path d="M377.734 174.812C384.774 174.812 390.738 177.011 395.266 181.634L396.076 182.483C399.988 186.785 401.946 192.036 401.946 198.052C401.946 200.613 401.643 203.731 401.071 207.349L401.065 207.401L393.121 252.819C392.843 254.404 391.465 255.565 389.856 255.566H377.313C376.334 255.566 375.403 255.13 374.773 254.381C374.143 253.63 373.878 252.637 374.047 251.673L381.712 208.341L381.731 208.243C382.193 206.029 382.434 204.559 382.509 203.741C382.594 202.712 382.638 201.787 382.638 200.974C382.638 198.047 381.794 196.075 380.403 194.683L380.351 194.631C379.037 193.257 377.217 192.454 374.527 192.454C372.104 192.454 369.189 193.354 365.715 195.558C362.435 197.638 359.226 200.991 356.152 205.82C353.292 210.368 351.132 216.382 349.79 223.988L344.775 252.819C344.497 254.405 343.119 255.565 341.509 255.566H328.966C327.988 255.566 327.056 255.129 326.426 254.381C325.798 253.632 325.534 252.642 325.701 251.679L338.38 179.23L338.536 178.654C339.008 177.37 340.236 176.484 341.645 176.483H353.768C354.751 176.484 355.684 176.92 356.314 177.675C356.942 178.431 357.21 179.43 357.033 180.397L356.457 183.532C357.689 182.413 358.995 181.372 360.376 180.416L360.402 180.397C365.815 176.72 371.613 174.812 377.734 174.812Z" stroke="white" stroke-linejoin="round"/>
</g>
<defs>
<filter id="filter0_d_1797_14519" x="34.6011" y="89.0264" width="137.807" height="137.807" filterUnits="userSpaceOnUse" color-interpolation-filters="sRGB">
<feFlood flood-opacity="0" result="BackgroundImageFix"/>
<feColorMatrix in="SourceAlpha" type="matrix" values="0 0 0 0 0 0 0 0 0 0 0 0 0 0 0 0 0 0 127 0" result="hardAlpha"/>
<feOffset dx="2" dy="2"/>
<feGaussianBlur stdDeviation="6"/>
<feComposite in2="hardAlpha" operator="out"/>
<feColorMatrix type="matrix" values="0 0 0 0 0 0 0 0 0 0 0 0 0 0 0 0 0 0 0.1 0"/>
<feBlend mode="normal" in2="BackgroundImageFix" result="effect1_dropShadow_1797_14519"/>
<feBlend mode="normal" in="SourceGraphic" in2="effect1_dropShadow_1797_14519" result="shape"/>
</filter>
<filter id="filter1_d_1797_14519" x="87.6479" y="19.8108" width="134.348" height="134.348" filterUnits="userSpaceOnUse" color-interpolation-filters="sRGB">
<feFlood flood-opacity="0" result="BackgroundImageFix"/>
<feColorMatrix in="SourceAlpha" type="matrix" values="0 0 0 0 0 0 0 0 0 0 0 0 0 0 0 0 0 0 127 0" result="hardAlpha"/>
<feOffset dx="2" dy="2"/>
<feGaussianBlur stdDeviation="6"/>
<feComposite in2="hardAlpha" operator="out"/>
<feColorMatrix type="matrix" values="0 0 0 0 0 0 0 0 0 0 0 0 0 0 0 0 0 0 0.1 0"/>
<feBlend mode="normal" in2="BackgroundImageFix" result="effect1_dropShadow_1797_14519"/>
<feBlend mode="normal" in="SourceGraphic" in2="effect1_dropShadow_1797_14519" result="shape"/>
</filter>
<filter id="filter2_d_1797_14519" x="555.22" y="9.09424" width="91.4365" height="91.437" filterUnits="userSpaceOnUse" color-interpolation-filters="sRGB">
<feFlood flood-opacity="0" result="BackgroundImageFix"/>
<feColorMatrix in="SourceAlpha" type="matrix" values="0 0 0 0 0 0 0 0 0 0 0 0 0 0 0 0 0 0 127 0" result="hardAlpha"/>
<feOffset dx="2" dy="2"/>
<feGaussianBlur stdDeviation="6"/>
<feComposite in2="hardAlpha" operator="out"/>
<feColorMatrix type="matrix" values="0 0 0 0 0 0 0 0 0 0 0 0 0 0 0 0 0 0 0.1 0"/>
<feBlend mode="normal" in2="BackgroundImageFix" result="effect1_dropShadow_1797_14519"/>
<feBlend mode="normal" in="SourceGraphic" in2="effect1_dropShadow_1797_14519" result="shape"/>
</filter>
<filter id="filter3_d_1797_14519" x="615.22" y="294.094" width="91.4365" height="91.437" filterUnits="userSpaceOnUse" color-interpolation-filters="sRGB">
<feFlood flood-opacity="0" result="BackgroundImageFix"/>
<feColorMatrix in="SourceAlpha" type="matrix" values="0 0 0 0 0 0 0 0 0 0 0 0 0 0 0 0 0 0 127 0" result="hardAlpha"/>
<feOffset dx="2" dy="2"/>
<feGaussianBlur stdDeviation="6"/>
<feComposite in2="hardAlpha" operator="out"/>
<feColorMatrix type="matrix" values="0 0 0 0 0 0 0 0 0 0 0 0 0 0 0 0 0 0 0.1 0"/>
<feBlend mode="normal" in2="BackgroundImageFix" result="effect1_dropShadow_1797_14519"/>
<feBlend mode="normal" in="SourceGraphic" in2="effect1_dropShadow_1797_14519" result="shape"/>
</filter>
<filter id="filter4_d_1797_14519" x="695.22" y="217.094" width="91.4365" height="91.437" filterUnits="userSpaceOnUse" color-interpolation-filters="sRGB">
<feFlood flood-opacity="0" result="BackgroundImageFix"/>
<feColorMatrix in="SourceAlpha" type="matrix" values="0 0 0 0 0 0 0 0 0 0 0 0 0 0 0 0 0 0 127 0" result="hardAlpha"/>
<feOffset dx="2" dy="2"/>
<feGaussianBlur stdDeviation="6"/>
<feComposite in2="hardAlpha" operator="out"/>
<feColorMatrix type="matrix" values="0 0 0 0 0 0 0 0 0 0 0 0 0 0 0 0 0 0 0.1 0"/>
<feBlend mode="normal" in2="BackgroundImageFix" result="effect1_dropShadow_1797_14519"/>
<feBlend mode="normal" in="SourceGraphic" in2="effect1_dropShadow_1797_14519" result="shape"/>
</filter>
<linearGradient id="paint0_linear_1797_14519" x1="800" y1="400" x2="480" y2="-240" gradientUnits="userSpaceOnUse">
<stop stop-color="#04AEF1" stop-opacity="0.6"/>
<stop offset="1" stop-color="#04AEF1"/>
</linearGradient>
<clipPath id="clip0_1797_14519">
<rect width="800" height="400" fill="white"/>
</clipPath>
</defs>
</svg>
